{"glyphs":{"0":{"ha":788,"x_min":0,"x_max":0,"o":"m 638 160 b 719 403 682 232 708 318 b 697 708 732 504 724 610 b 404 988 663 842 556 988 b 106 718 251 988 150 850 b 63 417 72 622 60 518 b 364 -6 72 239 150 -6 b 638 160 478 -6 579 67 z m 278 288 b 272 608 247 390 251 503 b 433 868 288 685 335 868 b 624 547 569 868 618 650 b 593 288 629 460 622 369 b 440 107 572 231 511 107 b 278 288 361 107 297 225 z "},"1":{"ha":610,"x_min":0,"x_max":0,"o":"m 450 10 b 524 64 485 14 528 29 b 533 768 493 297 535 533 b 511 950 533 829 532 893 b 488 990 507 958 496 985 b 465 996 481 994 474 996 b 257 910 414 996 304 942 b 31 736 215 881 54 781 b 72 663 11 699 39 663 b 104 675 82 663 93 667 b 333 846 178 736 257 790 b 315 72 342 588 285 328 b 318 56 315 67 317 60 b 426 8 332 21 383 8 b 450 10 435 8 443 8 z "},"2":{"ha":754,"x_min":0,"x_max":0,"o":"m 104 -7 b 471 8 226 -4 349 8 b 625 0 522 8 574 6 b 665 1 638 -1 653 -3 b 703 69 696 11 718 42 b 660 93 696 83 676 92 b 467 106 596 101 531 106 b 203 94 378 106 290 99 b 550 458 317 217 453 322 b 663 774 615 549 664 663 b 472 1001 663 894 601 1001 b 94 776 328 1001 169 897 b 72 704 82 754 67 729 b 115 668 78 681 96 668 b 164 700 133 668 154 679 b 385 882 208 792 274 882 b 444 865 408 882 431 878 b 464 808 460 853 465 828 b 389 628 458 751 417 676 b 157 268 318 504 233 389 b 47 46 133 229 51 90 b 104 -7 44 14 72 -8 z "},"3":{"ha":728,"x_min":0,"x_max":0,"o":"m 576 106 b 443 618 758 264 676 558 b 539 726 483 644 518 683 b 446 993 588 829 554 958 b 381 1003 425 1000 403 1003 b 89 875 274 1003 161 954 b 67 806 74 857 61 829 b 107 774 71 785 89 774 b 132 781 115 774 124 775 b 174 822 149 790 158 810 b 367 904 222 865 300 904 b 399 893 379 904 392 901 b 407 853 408 883 408 867 b 185 624 393 761 275 646 b 157 613 175 621 165 619 b 169 529 128 585 132 529 b 242 532 196 531 218 532 b 460 429 325 532 429 521 b 461 294 474 386 469 339 b 240 114 439 186 343 114 b 150 133 210 114 179 121 b 99 153 133 140 117 151 b 57 79 61 153 38 111 b 151 28 69 60 129 35 b 282 10 193 15 238 10 b 576 106 382 10 499 39 z "},"4":{"ha":863,"x_min":0,"x_max":0,"o":"m 750 24 b 749 296 750 114 749 204 b 768 299 756 296 761 297 b 749 393 825 315 807 393 b 746 950 747 578 746 764 b 649 997 746 990 676 997 b 543 946 617 997 543 986 b 526 367 543 753 531 560 b 406 361 486 364 446 361 b 232 392 354 361 276 367 b 444 806 256 499 383 714 b 456 846 451 818 458 832 b 346 910 451 892 382 910 b 282 892 322 910 299 904 b 261 868 274 886 267 876 b 100 586 208 774 149 683 b 43 422 74 535 49 481 b 67 331 39 392 44 354 b 125 300 82 315 104 306 b 374 271 194 275 300 271 b 525 276 425 271 475 274 b 535 36 525 196 528 115 b 629 -18 542 -10 589 -18 b 750 24 650 -18 750 -10 z "},"5":{"ha":771,"x_min":0,"x_max":0,"o":"m 711 314 b 678 506 715 379 706 447 b 421 665 628 604 532 665 b 214 596 346 665 272 640 b 250 815 217 678 226 738 b 407 821 301 819 354 821 b 597 815 471 821 533 818 b 629 835 610 814 622 824 b 657 922 647 858 657 890 b 639 971 657 939 654 961 b 496 985 615 986 525 985 b 192 976 456 983 232 981 b 133 875 156 972 140 911 b 117 610 117 788 121 699 b 126 506 115 575 118 540 b 163 453 131 486 142 454 b 183 461 169 453 178 457 b 389 554 233 496 324 554 b 475 446 457 554 472 504 b 458 308 476 400 468 354 b 308 101 442 233 404 101 b 238 124 283 101 258 111 b 149 190 204 140 176 165 b 111 213 139 200 126 208 b 54 156 75 219 40 189 b 194 43 69 119 161 60 b 396 -7 257 13 328 -7 b 711 314 599 -7 697 128 z "},"6":{"ha":769,"x_min":0,"x_max":0,"o":"m 708 219 b 672 493 733 308 717 413 b 414 661 622 592 526 661 b 265 626 364 661 311 647 b 513 888 311 742 375 872 b 501 983 583 896 572 992 b 57 360 226 957 57 610 b 396 4 57 143 181 4 b 708 219 538 4 668 74 z m 283 200 b 251 313 264 233 256 274 b 256 493 246 372 247 433 b 354 553 288 515 318 542 b 393 558 367 556 379 558 b 511 479 453 558 489 538 b 519 296 532 422 531 357 b 393 135 508 235 469 135 b 283 200 350 135 306 164 z "},"7":{"ha":735,"x_min":0,"x_max":0,"o":"m 360 33 b 363 49 361 39 363 44 b 633 778 410 304 508 551 b 713 892 643 794 706 874 b 661 961 726 926 700 965 b 485 954 603 956 543 954 b 92 969 354 954 222 964 b 36 882 53 972 39 921 b 71 774 32 846 38 786 b 211 765 92 765 188 765 b 515 772 313 764 414 767 b 211 261 411 603 288 444 b 150 58 183 196 163 128 b 206 4 144 31 178 13 b 264 -4 224 -1 244 -4 b 360 33 292 -4 347 4 z "},"8":{"ha":800,"x_min":0,"x_max":0,"o":"m 733 164 b 746 271 747 197 751 236 b 544 543 728 376 631 483 b 658 739 593 601 639 665 b 636 910 674 794 671 864 b 422 993 589 974 496 993 b 136 869 322 993 193 960 b 117 782 121 843 114 811 b 272 510 122 676 188 571 b 157 418 233 479 193 451 b 83 322 128 390 101 358 b 63 151 57 271 49 207 b 358 -28 94 19 235 -28 b 733 164 490 -28 678 29 z m 326 714 b 282 800 306 739 283 768 b 363 896 281 842 321 889 b 379 897 368 897 374 897 b 531 821 428 897 508 867 b 531 724 544 792 540 754 b 460 604 517 679 490 639 b 326 714 413 638 365 671 z m 189 225 b 228 331 190 263 206 300 b 358 447 263 378 314 410 b 476 336 403 417 442 378 b 540 124 524 278 588 181 b 390 76 513 90 447 76 b 189 225 300 76 189 121 z "},"9":{"ha":769,"x_min":0,"x_max":0,"o":"m 500 118 b 713 629 631 244 713 450 b 378 986 713 844 592 986 b 61 771 236 986 103 917 b 97 496 36 682 54 578 b 356 328 151 397 239 328 b 504 364 407 328 458 342 b 257 101 461 247 396 117 b 261 6 189 94 197 6 b 500 118 340 6 444 63 z m 254 524 b 322 835 228 613 249 778 b 383 854 339 849 363 857 b 518 678 476 849 510 757 b 515 497 525 618 522 557 b 415 436 483 475 453 447 b 376 431 403 433 390 431 b 254 524 311 431 274 458 z "},"\u0000":{"ha":0,"x_min":0,"x_max":0,"o":""},"\r":{"ha":0,"x_min":0,"x_max":0,"o":""}," ":{"ha":278,"x_min":0,"x_max":0,"o":""},"\n":{"ha":0,"x_min":0,"x_max":0,"o":""},"!":{"ha":401,"x_min":0,"x_max":0,"o":"m 325 440 b 329 576 329 486 329 532 b 317 861 329 672 329 767 b 296 933 314 886 307 911 b 257 971 289 950 274 963 b 254 975 257 971 256 974 b 199 1001 239 993 218 1001 b 99 919 157 1001 113 968 b 72 635 74 828 72 731 b 76 414 72 561 72 488 b 192 258 79 342 104 258 b 325 440 290 258 321 358 z m 297 58 b 214 167 318 113 272 167 b 165 154 197 167 182 158 b 142 -1 89 131 65 25 b 179 -7 154 -6 167 -7 b 297 58 229 -7 278 8 z "},"\"":{"ha":418,"x_min":0,"x_max":0,"o":"m 374 799 b 368 892 368 814 367 875 b 371 896 368 893 371 894 b 315 969 399 932 360 969 b 244 914 281 969 253 947 b 250 776 238 890 244 801 b 267 750 251 771 261 754 b 317 732 282 738 300 732 b 374 799 354 732 389 760 z m 172 786 b 167 879 167 801 165 863 b 169 883 167 881 168 882 b 136 953 190 910 169 944 b 114 956 129 956 122 956 b 40 893 79 956 46 931 b 42 813 38 867 39 839 b 115 718 47 763 54 718 b 172 786 154 718 188 746 z "},"‟":{"ha":418,"x_min":0,"x_max":0,"o":"m 374 799 b 368 892 368 814 367 875 b 371 896 368 893 371 894 b 315 969 399 932 360 969 b 244 914 281 969 253 947 b 250 776 238 890 244 801 b 267 750 251 771 261 754 b 317 732 282 738 300 732 b 374 799 354 732 389 760 z m 172 786 b 167 879 167 801 165 863 b 169 883 167 881 168 882 b 136 953 190 910 169 944 b 114 956 129 956 122 956 b 40 893 79 956 46 931 b 42 813 38 867 39 839 b 115 718 47 763 54 718 b 172 786 154 718 188 746 z "},"#":{"ha":825,"x_min":0,"x_max":0,"o":"m 532 140 b 544 157 536 144 542 150 b 586 293 561 201 574 247 b 707 296 608 293 688 286 b 688 389 757 318 742 390 b 617 390 664 389 640 389 b 661 518 631 433 646 476 b 736 514 674 518 725 510 b 758 599 776 524 789 572 b 696 613 742 613 717 611 b 731 697 707 642 718 669 b 740 706 732 699 739 704 b 682 781 772 738 728 781 b 608 750 658 781 624 771 b 553 621 596 733 561 642 b 415 621 507 622 461 622 b 463 736 431 660 444 699 b 465 739 463 738 465 739 b 472 796 483 753 489 779 b 410 819 456 811 432 819 b 342 790 383 819 357 808 b 267 614 322 767 278 642 b 114 585 242 611 136 596 b 106 499 78 568 72 522 b 142 492 115 492 129 489 b 231 511 171 500 200 506 b 186 375 214 465 200 421 b 108 374 174 374 121 369 b 90 376 103 376 96 376 b 57 294 51 376 25 326 b 79 279 64 288 71 282 b 158 276 106 274 132 275 b 140 161 154 256 135 182 b 210 122 150 133 182 122 b 267 140 231 122 253 128 b 282 186 279 150 289 171 b 306 285 288 219 297 253 b 442 292 351 288 396 290 b 413 199 438 276 422 211 b 419 139 397 181 401 154 b 474 122 433 128 454 122 b 532 140 496 122 517 128 z m 381 524 b 518 524 426 525 472 525 b 472 390 501 479 486 435 b 335 385 426 389 381 386 b 381 524 349 431 364 478 z "},"$":{"ha":722,"x_min":0,"x_max":0,"o":"m 361 -100 b 363 -6 361 -68 361 -36 b 489 21 406 -3 451 1 b 656 161 554 53 622 96 b 669 258 669 190 675 226 b 332 629 647 403 442 551 b 251 728 297 654 264 688 b 396 876 228 811 308 876 b 526 835 442 875 488 858 b 565 824 539 826 553 824 b 614 890 604 824 636 854 b 350 975 575 950 422 975 b 344 1074 350 990 350 1058 b 299 1106 338 1094 317 1106 b 253 1072 278 1106 260 1094 b 254 958 249 1054 253 976 b 131 528 79 893 18 678 b 179 483 144 511 161 497 b 368 339 240 433 306 389 b 443 274 393 318 419 297 b 468 239 453 264 463 253 b 475 178 475 221 479 199 b 299 90 456 110 363 90 b 150 124 247 90 194 101 b 111 133 138 129 124 133 b 58 76 74 133 42 110 b 267 -3 85 25 210 4 b 264 -100 264 -35 264 -67 b 313 -150 264 -133 288 -150 b 361 -100 336 -150 361 -133 z "},"%":{"ha":1071,"x_min":0,"x_max":0,"o":"m 358 660 b 358 932 429 739 440 863 b 263 981 331 954 297 969 b 254 989 260 982 257 986 b 193 1007 238 1001 215 1007 b 49 828 99 1007 60 907 b 61 678 43 778 40 724 b 210 583 89 619 147 583 b 358 660 272 583 317 617 z m 342 22 b 669 481 450 175 565 324 b 886 894 756 610 836 747 b 886 926 890 904 890 917 b 850 957 879 940 864 950 b 797 967 835 963 815 967 b 721 933 767 967 736 957 b 178 75 540 647 360 361 b 169 44 172 67 167 54 b 275 -4 181 10 243 -4 b 342 22 303 -4 328 3 z m 186 711 b 204 893 168 751 183 854 b 275 844 232 886 264 871 b 278 776 283 822 283 799 b 222 689 271 742 249 711 b 208 682 218 686 213 681 b 186 711 199 689 192 700 z m 1019 150 b 1010 300 1036 199 1036 258 b 879 393 982 346 929 375 b 869 401 875 394 874 399 b 810 418 853 413 831 418 b 665 239 714 418 675 319 b 676 90 658 189 656 135 b 826 -4 706 31 765 -4 b 1019 150 914 -4 993 71 z m 803 124 b 819 306 783 163 800 267 b 894 246 853 296 883 282 b 886 163 900 218 897 188 b 838 101 874 138 858 118 b 824 94 835 99 828 92 b 803 124 814 100 807 113 z "},"&":{"ha":925,"x_min":0,"x_max":0,"o":"m 888 26 b 897 67 894 39 899 53 b 882 93 896 78 890 86 b 697 233 821 140 754 182 b 743 286 714 249 731 267 b 804 381 765 317 782 350 b 765 458 829 418 800 458 b 732 446 754 458 743 456 b 667 353 719 435 676 365 b 625 310 654 336 640 322 b 469 486 568 363 519 425 b 635 653 532 533 599 585 b 657 856 667 713 678 790 b 415 1038 622 964 522 1038 b 164 796 278 1038 175 928 b 183 651 161 747 169 697 b 276 464 204 585 239 522 b 42 143 194 400 39 258 b 214 19 42 54 140 19 b 576 144 329 19 483 81 b 718 17 622 101 669 58 b 801 -39 732 4 782 -37 b 888 26 835 -43 874 -4 z m 333 760 b 325 867 325 794 319 832 b 413 946 331 917 364 946 b 468 935 432 946 451 942 b 553 721 551 899 593 801 b 414 560 511 642 488 613 b 333 760 376 621 350 689 z m 240 226 b 261 306 235 253 247 282 b 333 385 279 336 306 363 b 503 211 385 322 443 267 b 351 160 457 182 406 160 b 240 226 304 160 249 182 z "},"'":{"ha":217,"x_min":0,"x_max":0,"o":"m 172 786 b 167 879 167 801 165 863 b 169 883 167 881 168 882 b 136 953 190 910 169 944 b 114 956 129 956 122 956 b 40 893 79 956 46 931 b 42 813 38 867 39 839 b 115 718 47 763 54 718 b 172 786 154 718 188 746 z "},"‛":{"ha":217,"x_min":0,"x_max":0,"o":"m 172 786 b 167 879 167 801 165 863 b 169 883 167 881 168 882 b 136 953 190 910 169 944 b 114 956 129 956 122 956 b 40 893 79 956 46 931 b 42 813 38 867 39 839 b 115 718 47 763 54 718 b 172 786 154 718 188 746 z "},"(":{"ha":561,"x_min":0,"x_max":0,"o":"m 529 4 b 521 35 532 15 526 26 b 453 82 506 58 478 71 b 249 314 351 124 279 210 b 344 758 203 465 240 638 b 496 874 386 807 439 847 b 525 896 507 879 518 886 b 496 965 542 922 526 956 b 481 967 492 967 486 967 b 451 963 471 967 461 965 b 199 808 353 936 267 883 b 58 401 100 699 49 549 b 442 -17 74 172 224 22 b 479 -21 453 -18 467 -21 b 529 4 501 -21 524 -15 z "},")":{"ha":563,"x_min":0,"x_max":0,"o":"m 333 71 b 458 224 386 111 429 164 b 506 456 493 294 508 376 b 107 964 497 692 338 906 b 82 968 99 967 90 968 b 63 964 76 968 69 967 b 40 892 33 951 21 917 b 67 874 47 883 57 878 b 267 692 151 833 219 771 b 328 375 322 597 344 483 b 110 82 307 244 233 133 b 35 21 86 71 42 50 b 89 -19 25 -10 56 -19 b 333 71 167 -19 272 25 z "},"+":{"ha":676,"x_min":0,"x_max":0,"o":"m 418 186 l 422 336 b 581 321 475 333 528 326 b 607 326 589 319 600 321 b 621 458 644 357 647 419 b 596 475 615 467 606 474 b 426 490 540 482 483 488 b 432 599 426 506 429 585 b 436 614 432 603 433 613 b 408 685 461 636 439 671 b 365 693 394 690 381 693 b 307 675 344 693 324 688 b 274 490 269 649 275 536 b 122 486 253 490 142 485 b 88 489 117 486 92 490 b 49 453 69 488 56 469 b 56 350 33 419 36 379 b 81 335 61 343 71 336 b 149 331 103 332 126 331 b 268 335 189 331 228 333 b 265 194 268 288 267 242 b 356 140 265 154 325 140 b 418 186 385 140 417 157 z "},",":{"ha":244,"x_min":0,"x_max":0,"o":"m 129 -194 b 158 -171 142 -192 153 -183 b 207 -50 176 -132 199 -93 b 146 160 222 25 218 135 b 121 164 138 163 129 164 b 88 157 110 164 97 161 b 44 19 36 133 17 68 b 114 -21 58 -7 83 -21 b 90 -92 110 -44 101 -69 b 69 -133 86 -99 71 -126 b 129 -194 60 -171 92 -206 z "},"-":{"ha":688,"x_min":0,"x_max":0,"o":"m 106 322 b 111 326 107 324 110 326 b 360 336 150 335 254 338 b 610 331 465 338 572 335 b 658 386 638 328 656 357 b 617 442 660 411 643 440 b 390 447 581 446 489 447 b 96 438 269 447 139 444 b 57 424 82 435 68 432 b 29 378 40 414 31 397 b 81 315 26 344 51 315 b 106 322 89 315 97 318 z "},".":{"ha":214,"x_min":0,"x_max":0,"o":"m 165 43 b 119 167 203 92 181 167 b 94 164 111 167 103 165 b 67 22 26 156 6 54 b 99 13 76 18 85 11 b 165 43 124 14 150 24 z "},":":{"ha":242,"x_min":0,"x_max":0,"o":"m 176 517 b 194 611 196 543 206 581 b 103 661 183 647 140 669 b 47 592 69 653 39 625 b 49 574 49 586 49 581 b 124 489 44 524 83 489 b 176 517 143 489 163 497 z m 179 -3 b 188 101 204 21 206 72 b 121 135 174 124 147 135 b 44 64 71 135 53 108 b 126 -25 36 14 78 -25 b 179 -3 147 -25 164 -18 z "},";":{"ha":271,"x_min":0,"x_max":0,"o":"m 161 -135 b 206 -42 167 -122 200 -53 b 226 88 222 -1 232 44 b 125 174 219 138 175 174 b 115 174 122 174 118 174 b 113 -7 21 165 18 1 l 114 -7 b 71 -111 107 -25 71 -92 b 119 -160 71 -139 93 -160 b 161 -135 135 -160 154 -150 z m 150 504 b 215 614 185 521 219 575 b 154 661 211 642 183 664 b 118 657 149 661 122 658 b 64 556 79 646 58 596 b 126 499 69 522 97 499 b 150 504 135 499 142 501 z "},"<":{"ha":683,"x_min":0,"x_max":0,"o":"m 649 103 b 621 142 649 119 635 135 b 275 338 574 168 319 307 b 439 453 332 374 383 417 b 529 493 467 469 497 488 b 575 547 558 499 583 519 b 508 589 567 578 539 589 b 110 431 447 589 160 461 b 44 374 85 417 60 399 b 42 325 36 358 35 342 b 208 210 61 272 160 229 b 549 64 250 192 507 83 b 586 54 560 58 574 54 b 649 103 614 54 647 74 z "},"=":{"ha":685,"x_min":0,"x_max":0,"o":"m 619 458 b 626 585 650 488 650 549 b 601 600 621 593 611 599 b 367 618 524 611 446 618 b 193 613 310 618 251 615 b 128 611 171 611 149 610 b 93 615 122 613 97 615 b 54 579 75 614 61 596 b 61 476 39 544 42 506 b 86 460 67 468 76 461 b 154 457 108 457 132 457 b 278 461 196 457 236 460 b 433 461 329 463 382 464 b 586 446 485 458 535 453 b 619 458 600 444 610 447 z m 561 192 b 590 207 572 192 583 199 b 610 283 607 228 611 258 b 560 344 608 314 590 344 b 167 333 510 343 217 333 b 132 339 160 333 138 333 b 111 349 125 346 118 349 b 64 307 92 349 72 329 b 79 206 53 275 57 232 b 132 182 90 190 113 183 b 561 192 190 178 504 189 z "},">":{"ha":682,"x_min":0,"x_max":0,"o":"m 133 64 b 546 243 186 88 496 217 b 640 369 600 271 665 315 b 558 439 624 401 590 422 b 215 583 511 467 268 567 b 153 588 194 589 174 592 b 115 513 118 578 92 540 b 154 493 125 501 140 496 b 236 457 183 488 211 472 b 407 338 296 421 349 375 b 63 142 364 307 110 168 b 47 132 57 139 51 136 b 85 54 18 104 44 61 b 94 53 88 54 90 53 b 133 64 108 53 122 58 z "},"?":{"ha":678,"x_min":0,"x_max":0,"o":"m 286 249 b 265 308 288 269 271 288 b 283 386 260 333 264 367 b 378 429 296 399 361 422 b 611 589 464 463 563 506 b 635 699 629 621 636 661 b 361 992 628 839 510 992 b 46 778 244 992 72 903 b 53 718 42 758 42 735 b 101 690 64 700 83 690 b 142 715 118 690 133 699 b 146 790 153 738 139 765 b 286 889 160 844 233 889 b 372 803 332 889 360 840 b 300 519 408 704 393 567 b 190 467 264 501 217 497 b 164 408 176 451 168 429 b 203 217 153 357 163 251 b 236 204 213 208 225 204 b 286 249 261 204 285 221 z m 356 92 b 260 164 342 139 310 164 b 165 83 214 164 169 135 b 165 75 165 81 167 78 b 204 -37 147 36 167 -19 b 243 -46 217 -43 231 -46 b 356 92 310 -46 374 22 z "},"@":{"ha":1186,"x_min":0,"x_max":0,"o":"m 806 -87 b 951 -29 831 -79 932 -44 b 967 -8 958 -24 964 -17 b 928 83 978 24 960 68 b 890 82 917 89 903 88 b 544 -15 782 32 667 -15 b 186 311 342 -15 200 111 b 304 674 176 438 222 575 b 615 814 381 765 497 814 b 994 564 769 814 961 729 b 989 444 1003 525 1000 483 b 865 257 971 386 917 296 b 824 243 853 250 838 243 b 751 332 779 243 757 296 b 736 489 743 383 746 438 b 590 611 721 565 671 611 b 343 349 463 611 354 465 b 372 225 339 306 344 256 b 506 169 404 189 456 169 b 661 290 590 169 626 219 b 849 146 688 206 758 146 b 1133 514 1025 146 1122 363 b 1117 650 1136 560 1132 607 b 625 919 1046 843 815 919 b 106 563 379 919 196 789 b 61 238 65 461 47 346 b 558 -124 94 -31 317 -124 b 806 -87 642 -124 726 -112 z m 499 285 b 496 344 493 303 494 324 b 574 500 503 394 526 472 b 613 507 586 506 600 510 b 629 500 615 506 626 501 b 633 475 629 496 636 481 b 590 357 615 438 606 396 b 543 283 579 331 564 304 b 514 268 538 278 522 267 b 499 285 507 271 501 278 z "},"A":{"ha":810,"x_min":0,"x_max":0,"o":"m 722 6 b 792 103 763 24 806 61 b 531 907 701 371 639 647 b 500 969 521 929 517 953 b 440 989 486 983 463 989 b 288 890 378 989 311 949 b 221 699 278 867 229 724 b 14 46 193 614 35 133 b 26 8 10 31 14 18 b 64 -6 38 -1 51 -6 b 110 26 83 -6 103 6 b 206 319 142 125 174 222 b 494 344 300 335 397 340 b 604 24 532 238 568 131 b 658 -8 613 0 633 -8 b 722 6 679 -8 703 -3 z m 349 764 l 461 439 b 239 422 386 436 313 432 b 349 764 275 536 311 650 z "},"B":{"ha":892,"x_min":0,"x_max":0,"o":"m 744 64 b 829 378 836 129 879 278 b 740 469 810 417 776 449 b 578 499 692 494 632 503 b 788 696 667 536 753 603 b 803 810 801 732 807 772 b 572 1003 786 922 683 1003 b 296 854 464 1003 365 932 l 296 944 b 289 965 296 953 293 958 b 200 992 274 985 235 992 b 93 942 168 992 93 982 b 76 214 93 699 74 456 b 86 31 78 153 81 92 b 179 -24 93 -15 139 -24 b 268 -8 211 -24 244 -17 b 397 -24 310 -19 353 -24 b 744 64 507 -24 654 1 z m 300 83 b 299 369 300 179 300 275 b 435 401 344 382 389 393 b 510 410 460 406 485 410 b 601 381 542 410 578 404 b 614 188 647 336 649 242 b 354 81 564 108 442 81 b 300 83 336 81 318 82 z m 297 681 b 519 872 332 756 426 872 b 592 824 553 872 579 856 b 592 749 601 800 599 772 b 299 476 553 622 414 525 b 297 681 297 544 297 613 z "},"C":{"ha":715,"x_min":0,"x_max":0,"o":"m 632 140 b 682 231 643 156 679 211 b 633 285 685 261 660 285 b 589 254 613 285 597 272 b 417 110 557 193 492 114 b 343 144 389 110 361 125 b 294 254 318 175 304 215 b 279 472 278 325 275 400 b 321 715 283 554 296 638 b 465 885 343 782 394 886 b 524 856 486 883 507 869 b 588 761 551 829 571 796 b 632 732 597 742 614 732 b 679 775 654 732 676 747 b 594 910 685 814 624 882 b 399 988 542 958 471 988 b 85 686 224 988 131 833 b 53 333 50 574 36 450 b 364 3 79 163 175 3 b 632 140 469 3 568 57 z "},"D":{"ha":901,"x_min":0,"x_max":0,"o":"m 272 -7 b 376 1 307 -11 343 -6 b 861 563 640 51 839 300 b 831 799 867 642 857 724 b 576 988 790 906 693 988 b 294 754 433 988 349 874 l 294 944 b 288 965 294 953 292 958 b 199 992 272 985 233 992 b 92 942 167 992 92 982 b 75 214 92 699 72 456 b 85 31 76 153 79 92 b 186 -24 92 -18 146 -24 b 272 -7 215 -24 246 -18 z m 297 322 b 314 456 297 342 311 436 b 461 819 333 578 376 725 b 535 863 479 839 507 863 b 604 781 578 863 594 814 b 621 601 621 724 622 661 b 299 93 621 358 543 163 b 297 322 299 169 299 246 z "},"E":{"ha":679,"x_min":0,"x_max":0,"o":"m 264 -21 b 614 11 318 -18 564 -6 b 619 99 657 24 660 79 b 579 101 607 104 592 104 b 300 82 488 86 393 89 b 299 461 300 208 299 335 b 490 460 328 463 461 467 b 532 544 542 449 575 515 b 411 563 511 558 461 563 b 297 558 365 563 321 560 b 296 908 297 675 296 792 b 593 901 396 907 494 900 b 639 913 610 901 626 903 b 622 999 672 938 663 992 b 607 1000 617 1000 613 1000 b 338 1007 518 1000 428 1007 b 99 956 281 1007 124 1006 b 94 938 96 950 94 943 b 86 39 93 638 58 338 b 215 -22 86 -22 171 -22 b 264 -21 232 -22 247 -21 z "},"F":{"ha":664,"x_min":0,"x_max":0,"o":"m 275 -19 b 303 51 304 -19 303 22 b 299 461 300 188 299 325 b 492 460 328 463 463 465 b 533 543 542 450 574 513 b 410 563 513 558 460 563 b 297 558 364 563 321 560 b 296 908 297 675 296 792 b 614 903 339 908 571 899 b 606 1000 679 910 672 1000 b 325 1007 513 1000 418 1007 b 164 993 271 1007 217 1006 b 93 938 135 986 93 967 b 86 33 93 636 58 333 b 99 3 86 22 92 11 b 275 -19 126 -25 235 -19 z "},"G":{"ha":774,"x_min":0,"x_max":0,"o":"m 717 31 b 715 64 721 42 718 53 b 689 365 690 174 689 254 b 726 465 722 379 732 431 b 696 513 722 483 713 503 b 658 517 685 518 671 518 b 501 504 606 514 553 507 b 471 503 496 504 475 503 b 433 404 435 493 428 442 b 481 353 438 381 457 353 b 592 361 518 354 556 357 b 515 160 583 289 564 213 b 413 111 490 133 450 111 b 278 394 301 111 281 314 b 314 693 275 494 286 597 b 465 886 336 768 385 886 b 588 764 522 882 565 807 b 632 735 597 743 614 735 b 679 776 654 735 676 749 b 594 911 685 815 624 885 b 399 989 542 961 471 989 b 94 717 235 989 144 857 b 49 381 57 610 39 493 b 365 6 61 194 158 6 b 607 113 456 6 544 46 b 635 11 610 92 621 26 b 669 -3 644 1 657 -3 b 717 31 690 -3 711 10 z "},"H":{"ha":889,"x_min":0,"x_max":0,"o":"m 261 -11 b 299 18 275 -6 299 4 b 297 407 299 147 299 278 b 507 428 367 419 438 428 b 588 424 535 428 561 426 b 594 31 583 293 582 161 b 604 4 596 22 599 13 b 689 -24 621 -15 654 -24 b 771 -10 718 -24 750 -18 b 808 19 785 -6 808 4 b 804 946 808 328 804 636 b 797 965 804 953 803 960 b 706 992 782 985 740 992 b 601 942 674 992 601 982 b 590 521 601 801 594 661 b 511 524 564 524 538 524 b 296 506 439 524 367 517 b 294 944 296 651 294 799 b 288 965 294 953 292 958 b 199 992 272 985 233 992 b 92 942 167 992 92 982 b 75 214 92 699 72 456 b 85 31 76 153 79 92 b 181 -24 92 -17 140 -24 b 261 -11 210 -24 240 -18 z "},"I":{"ha":379,"x_min":0,"x_max":0,"o":"m 261 -11 b 299 18 275 -6 299 4 b 294 944 299 328 294 636 b 288 965 294 953 292 958 b 199 992 272 985 233 992 b 92 942 167 992 92 982 b 75 214 92 699 72 456 b 85 31 76 153 79 92 b 181 -24 92 -17 140 -24 b 261 -11 210 -24 240 -18 z "},"J":{"ha":676,"x_min":0,"x_max":0,"o":"m 604 300 l 604 946 b 589 981 604 958 599 972 b 524 996 569 994 546 996 b 474 992 507 996 490 994 b 410 963 450 989 424 981 b 403 933 404 954 403 943 b 386 325 401 731 378 528 b 371 201 388 283 383 242 b 283 100 356 157 332 114 b 222 103 263 96 242 97 b 115 215 161 118 122 150 b 115 276 115 224 117 268 b 69 321 113 306 92 321 b 19 283 49 321 28 308 b 115 44 -4 206 47 89 b 294 -11 168 8 232 -11 b 604 300 463 -11 604 128 z "},"K":{"ha":847,"x_min":0,"x_max":0,"o":"m 261 -11 b 299 18 275 -6 299 4 b 297 414 299 150 299 282 b 674 -3 418 271 531 118 b 704 -12 682 -10 693 -14 b 825 103 750 -8 807 63 b 828 146 831 115 838 138 b 407 596 678 286 547 446 b 769 914 529 701 656 800 b 769 978 786 931 785 961 b 731 994 758 989 744 994 b 700 982 719 994 708 990 b 296 628 574 856 429 746 b 294 944 294 733 294 839 b 288 965 294 953 292 958 b 199 992 272 985 233 992 b 92 942 167 992 92 982 b 75 214 92 699 72 456 b 85 31 76 153 79 92 b 181 -24 92 -17 140 -24 b 261 -11 210 -24 240 -18 z "},"L":{"ha":656,"x_min":0,"x_max":0,"o":"m 607 -14 b 614 83 672 -14 679 76 b 296 78 571 88 339 79 b 300 871 296 342 299 607 b 294 946 300 896 300 922 b 190 1006 275 999 246 1006 b 97 982 164 1006 118 1003 b 86 953 90 974 86 964 b 93 50 58 653 93 350 b 317 -19 93 -19 272 -19 b 607 -14 414 -21 510 -14 z "},"M":{"ha":1182,"x_min":0,"x_max":0,"o":"m 160 44 b 196 685 171 258 171 472 b 447 124 250 486 329 290 b 518 47 467 94 489 65 b 554 40 528 42 542 36 b 582 69 567 44 575 57 b 858 728 682 285 772 506 b 915 42 871 499 874 267 b 1011 -8 922 3 978 -8 b 1131 42 1058 -8 1111 7 b 1046 969 1103 351 1072 660 b 964 1010 1043 999 989 1010 b 836 942 917 1010 857 989 b 596 326 758 736 688 526 b 353 956 492 526 406 738 b 243 1003 343 993 272 1003 b 140 942 194 1003 154 992 b 63 40 67 650 76 342 b 107 -12 61 4 83 -12 b 160 44 132 -12 158 7 z "},"N":{"ha":899,"x_min":0,"x_max":0,"o":"m 176 38 l 176 724 b 636 13 335 489 472 242 b 658 1 642 4 650 1 b 819 129 711 1 819 79 l 819 940 b 769 994 819 975 794 994 b 722 943 746 994 722 978 l 722 282 b 253 969 574 517 415 743 b 219 985 246 979 231 985 b 79 850 156 985 79 917 l 79 36 b 126 -15 79 1 103 -15 b 176 38 151 -15 176 3 z "},"O":{"ha":788,"x_min":0,"x_max":0,"o":"m 700 267 b 708 724 754 408 756 579 b 397 988 658 867 561 988 b 78 664 217 988 121 817 b 65 272 43 539 33 399 b 364 3 104 122 200 3 b 700 267 528 3 647 119 z m 286 297 b 292 593 271 394 275 496 b 419 871 304 674 343 824 b 488 886 440 883 465 890 b 547 850 511 883 532 867 b 624 553 606 778 622 642 b 600 331 625 479 618 403 b 531 174 586 275 567 218 b 414 111 501 140 457 111 b 286 297 329 111 299 231 z "},"P":{"ha":800,"x_min":0,"x_max":0,"o":"m 261 -11 b 299 18 275 -6 299 4 l 299 293 b 767 701 488 360 711 494 b 765 869 782 756 783 817 b 578 994 735 950 664 994 b 294 844 471 994 364 919 l 294 944 b 288 965 294 953 292 958 b 199 992 272 985 233 992 b 92 942 167 992 92 982 b 75 214 92 699 72 456 b 85 31 76 153 79 92 b 181 -24 92 -17 140 -24 b 261 -11 210 -24 240 -18 z m 296 682 b 472 831 328 749 390 831 b 553 785 506 831 538 817 b 453 517 589 708 510 578 b 297 400 408 468 356 429 b 296 682 297 494 296 588 z "},"Q":{"ha":806,"x_min":0,"x_max":0,"o":"m 799 -44 b 788 -17 799 -35 794 -24 b 644 158 735 36 683 94 b 731 372 689 221 715 297 b 700 747 753 496 744 629 b 399 988 647 881 551 988 b 85 685 225 988 129 832 b 61 292 46 558 33 419 b 364 4 94 135 189 4 b 578 83 439 4 517 31 b 751 -97 603 43 704 -97 b 799 -44 779 -97 801 -75 z m 371 124 b 286 297 318 154 296 242 b 292 593 271 394 275 496 b 421 871 306 674 343 825 b 488 886 440 883 465 890 b 547 850 511 883 532 867 b 597 746 572 819 586 782 b 624 513 619 671 625 590 b 583 272 621 432 610 349 b 546 372 568 304 549 336 b 542 406 544 383 546 394 b 496 438 535 426 515 438 b 463 424 485 438 472 433 b 476 272 431 392 457 314 b 526 169 492 238 508 203 b 414 111 499 138 454 111 b 371 124 399 111 383 115 z "},"R":{"ha":860,"x_min":0,"x_max":0,"o":"m 261 -11 b 299 18 275 -6 299 4 l 299 293 l 361 318 b 572 89 431 240 497 160 b 674 -3 606 57 639 26 b 704 -12 682 -10 694 -14 b 825 103 750 -8 807 63 b 828 146 831 115 838 138 b 543 415 732 235 638 325 b 778 763 656 494 768 618 b 754 893 782 807 775 854 b 578 994 722 961 650 994 b 294 844 471 994 364 919 l 294 944 b 288 965 294 953 292 958 b 199 992 272 985 233 992 b 92 942 167 992 92 982 b 75 214 92 699 72 456 b 85 31 76 153 79 92 b 181 -24 92 -17 140 -24 b 261 -11 210 -24 240 -18 z m 296 682 b 471 832 326 747 390 832 b 554 781 507 832 539 815 b 558 713 563 760 563 735 b 399 465 543 617 471 525 b 297 400 369 439 332 418 b 296 682 297 494 296 588 z "},"S":{"ha":682,"x_min":0,"x_max":0,"o":"m 469 21 b 636 161 535 53 603 96 b 650 258 650 190 656 226 b 313 629 628 403 422 551 b 232 728 278 654 244 688 b 376 876 208 811 289 876 b 507 835 422 875 468 858 b 546 824 519 826 533 824 b 594 890 585 824 617 854 b 338 975 557 949 407 975 b 111 528 103 976 -29 714 b 160 483 125 511 142 497 b 349 339 221 433 286 389 b 424 274 374 318 400 297 b 449 239 433 264 443 253 b 456 178 456 221 460 199 b 279 90 436 110 343 90 b 131 124 228 90 175 101 b 92 133 118 129 104 133 b 39 76 54 133 22 110 b 317 -6 71 13 249 -6 b 469 21 368 -6 424 -3 z "},"T":{"ha":714,"x_min":0,"x_max":0,"o":"m 443 -11 b 481 18 457 -6 481 4 b 476 903 481 313 476 607 b 668 908 500 903 644 907 b 707 926 683 910 699 915 b 668 1006 731 961 708 1006 b 350 994 628 1004 389 996 b 40 983 246 993 143 992 b 0 942 21 982 1 961 b 42 888 -3 915 14 889 b 83 889 56 886 69 889 b 274 896 147 894 210 896 b 257 214 271 669 253 442 b 265 31 257 153 260 92 b 361 -24 272 -17 321 -24 b 443 -11 390 -24 421 -18 z "},"U":{"ha":824,"x_min":0,"x_max":0,"o":"m 732 190 b 754 467 760 278 756 374 b 744 935 753 524 744 878 b 690 992 744 972 717 992 b 647 946 668 992 647 978 b 642 351 647 872 642 424 b 454 92 642 213 618 92 b 293 336 310 92 293 222 b 276 936 293 536 276 736 b 249 978 276 953 263 969 b 169 996 225 990 196 996 b 74 942 126 996 74 985 b 75 307 74 731 75 519 b 440 -17 75 79 228 -17 b 732 190 585 -17 690 47 z "},"V":{"ha":813,"x_min":0,"x_max":0,"o":"m 513 67 b 592 282 532 96 581 249 b 799 935 619 367 776 849 b 786 972 801 950 799 963 b 749 986 775 982 763 986 b 703 954 729 986 710 975 b 464 218 622 708 543 463 b 207 958 378 464 292 711 b 154 990 199 982 178 990 b 90 975 133 990 110 983 b 21 878 50 957 7 919 b 282 74 111 610 174 333 b 318 6 292 50 297 21 b 371 -8 333 -4 351 -8 b 513 67 425 -8 483 22 z "},"W":{"ha":1238,"x_min":0,"x_max":0,"o":"m 949 86 b 1222 931 992 197 1190 815 b 1210 969 1226 946 1222 958 b 1174 983 1199 978 1186 983 b 1126 950 1153 983 1133 971 b 888 214 1046 706 967 460 b 675 822 817 417 744 619 b 618 853 667 846 643 853 b 588 850 608 853 597 851 b 506 804 557 842 528 826 b 486 754 493 792 483 772 b 489 742 486 750 488 746 b 557 521 514 668 536 594 b 464 215 526 419 496 317 b 207 956 378 463 292 710 b 154 988 199 979 178 988 b 90 974 133 988 110 982 b 21 876 50 956 7 918 b 282 72 111 608 174 332 b 315 7 292 49 296 22 b 375 -10 331 -6 353 -10 b 517 72 431 -10 490 24 b 608 340 538 108 596 301 b 706 68 636 249 669 157 b 743 1 717 44 721 14 b 796 -12 758 -8 778 -12 b 949 86 857 -12 926 31 z "},"X":{"ha":736,"x_min":0,"x_max":0,"o":"m 139 22 b 328 336 203 126 265 232 b 518 26 389 232 451 128 b 538 10 522 19 529 13 b 560 6 544 7 551 6 b 686 67 603 6 658 40 b 713 115 699 78 721 100 b 456 549 636 265 544 407 l 676 915 b 681 953 682 926 683 940 b 635 988 675 976 654 988 b 592 963 618 988 601 981 b 397 640 526 856 463 749 b 207 972 331 749 264 858 b 168 990 200 985 185 990 b 35 919 122 990 61 956 b 28 876 26 907 21 890 b 272 432 104 726 188 579 b 54 71 200 311 128 192 b 50 33 47 60 46 46 b 96 -3 56 10 76 -3 b 139 22 113 -3 129 6 z "},"Y":{"ha":701,"x_min":0,"x_max":0,"o":"m 489 10 l 489 15 b 481 489 489 174 481 331 b 481 497 481 492 478 494 b 572 646 517 543 546 594 b 671 871 608 719 640 796 b 693 929 674 879 692 921 b 646 992 700 961 675 992 b 621 983 638 992 629 989 b 563 874 601 969 572 896 b 482 665 535 806 511 735 b 440 583 469 638 457 608 b 390 547 429 567 408 540 b 351 600 376 551 358 586 b 215 963 294 715 264 843 b 146 993 208 989 168 993 b 8 933 110 993 21 976 b 11 917 8 928 8 922 b 132 640 47 822 85 729 b 279 453 168 569 214 499 b 275 139 283 349 279 243 b 281 8 274 114 268 29 b 372 -26 294 -18 335 -26 b 489 10 401 -26 476 -17 z "},"Z":{"ha":768,"x_min":0,"x_max":0,"o":"m 538 7 b 689 17 563 7 667 7 b 692 103 725 31 725 83 b 661 108 682 107 671 110 b 257 100 526 100 392 103 b 743 857 429 346 572 611 b 711 942 763 885 736 921 b 596 989 679 969 638 990 b 117 979 436 986 276 982 b 122 882 42 978 49 881 b 515 888 171 883 467 886 b 32 154 342 651 176 410 b 21 129 28 146 22 138 b 31 89 19 115 24 100 b 189 1 56 47 142 1 b 538 7 306 4 422 4 z "},"^":{"ha":519,"x_min":0,"x_max":0,"o":"m 119 763 b 213 857 149 796 178 831 b 268 883 229 869 249 881 b 324 868 288 885 307 876 b 413 811 356 851 385 832 b 436 804 419 807 428 804 b 486 863 465 804 493 832 b 468 892 483 874 478 885 b 307 976 418 926 367 963 b 276 979 297 979 286 979 b 176 950 242 979 206 968 b 44 825 126 917 85 871 b 82 744 13 788 46 744 b 119 763 94 744 108 750 z "},"ˆ":{"ha":519,"x_min":0,"x_max":0,"o":"m 119 763 b 213 857 149 796 178 831 b 268 883 229 869 249 881 b 324 868 288 885 307 876 b 413 811 356 851 385 832 b 436 804 419 807 428 804 b 486 863 465 804 493 832 b 468 892 483 874 478 885 b 307 976 418 926 367 963 b 276 979 297 979 286 979 b 176 950 242 979 206 968 b 44 825 126 917 85 871 b 82 744 13 788 46 744 b 119 763 94 744 108 750 z "},"_":{"ha":753,"x_min":0,"x_max":0,"o":"m 86 -233 b 314 -210 160 -214 238 -210 b 707 -228 444 -210 575 -217 b 744 -203 721 -228 738 -215 b 704 -107 767 -162 749 -110 b 342 -89 583 -97 463 -89 b 36 -124 239 -89 135 -92 b 7 -153 24 -128 13 -140 b 53 -251 -14 -199 18 -251 b 86 -233 64 -251 76 -246 z "},"`":{"ha":225,"x_min":0,"x_max":0,"o":"m 172 844 b 188 911 194 860 203 889 b 97 1006 172 933 124 999 b 31 946 57 1017 21 985 b 54 917 35 933 43 922 b 108 856 68 911 100 867 b 149 838 118 844 133 838 b 172 844 157 838 165 839 z "},"a":{"ha":844,"x_min":0,"x_max":0,"o":"m 514 274 b 553 78 521 207 519 136 b 711 -4 588 18 646 -4 b 786 4 736 -4 761 0 b 810 85 826 11 847 67 b 782 89 801 89 792 89 b 749 103 769 90 758 96 b 708 263 714 138 708 217 b 738 631 707 386 729 508 b 683 674 739 653 704 668 b 632 682 668 679 650 682 b 539 628 592 682 554 667 b 383 690 494 669 443 690 b 146 574 292 690 201 644 b 32 211 67 475 29 338 b 224 -19 35 93 94 -19 b 514 274 368 -19 468 157 z m 249 144 b 228 182 238 154 232 168 b 221 260 221 207 221 233 b 414 590 226 360 285 590 b 454 575 431 590 442 585 b 499 525 471 561 485 543 b 379 233 474 414 446 326 b 269 138 358 204 306 138 b 249 144 261 138 254 140 z "},"b":{"ha":819,"x_min":0,"x_max":0,"o":"m 289 19 l 289 46 b 396 28 322 33 360 28 b 751 260 556 28 685 114 b 775 536 789 343 803 449 b 568 700 747 625 663 700 b 286 511 443 700 347 613 b 285 611 286 544 285 578 b 367 704 300 622 356 689 b 410 946 415 768 460 883 b 288 994 383 978 335 994 b 64 549 90 994 72 696 b 67 154 58 417 63 285 b 79 10 67 128 67 33 b 171 -22 94 -18 142 -22 b 289 19 194 -22 289 -14 z m 301 147 b 288 167 299 150 290 164 b 288 247 288 179 285 236 b 501 572 308 335 388 572 b 565 442 560 572 565 485 b 381 124 564 342 510 124 b 301 147 353 124 325 133 z m 285 851 b 301 913 286 865 290 904 b 333 913 308 918 325 917 b 351 822 364 900 361 854 b 282 721 339 783 314 746 b 285 851 281 764 281 807 z "},"c":{"ha":592,"x_min":0,"x_max":0,"o":"m 396 -35 b 560 83 447 -19 547 31 b 500 138 569 119 535 149 b 475 124 490 136 482 131 b 356 65 443 96 400 65 b 292 101 328 65 308 78 b 264 181 276 125 268 153 b 258 332 254 231 254 281 b 328 597 265 411 285 528 b 399 649 346 622 372 649 b 442 608 424 649 435 629 b 449 525 449 582 446 553 b 499 478 451 497 475 478 b 546 521 525 478 540 497 b 411 743 568 621 511 722 b 365 749 396 747 381 749 b 61 488 210 749 103 626 b 44 203 33 396 29 296 b 322 -44 65 61 181 -44 b 396 -35 347 -44 372 -42 z "},"d":{"ha":857,"x_min":0,"x_max":0,"o":"m 310 1 b 515 274 406 47 478 179 b 540 108 522 218 521 161 b 713 -4 571 31 632 -4 b 788 4 738 -4 764 0 b 811 85 828 11 849 67 b 778 90 801 89 789 88 b 724 226 738 103 728 185 b 728 543 714 332 719 438 b 774 946 738 678 754 813 b 729 988 778 968 753 982 b 688 992 715 990 701 992 b 576 942 660 992 581 981 b 542 633 572 903 547 672 b 539 629 540 631 542 628 b 382 690 493 672 443 690 b 147 574 292 690 203 644 b 33 214 68 475 32 339 b 221 -19 36 100 93 -19 b 310 1 251 -19 282 -14 z m 224 219 b 244 385 219 275 229 332 b 414 589 264 457 324 589 b 456 575 428 589 443 585 b 500 525 472 561 486 543 b 381 233 476 422 446 318 b 271 138 360 204 307 138 b 224 219 236 138 226 183 z "},"e":{"ha":594,"x_min":0,"x_max":0,"o":"m 451 -12 b 558 76 476 0 547 50 b 524 140 571 104 553 135 b 478 129 508 142 492 136 b 374 67 442 110 413 76 b 328 71 360 64 342 64 b 258 235 275 94 263 185 b 447 318 326 244 396 272 b 549 543 508 374 549 461 b 510 676 550 590 538 639 b 432 738 490 704 463 725 b 368 747 413 744 390 747 b 88 556 239 747 140 668 b 49 189 35 444 25 310 b 325 -43 75 49 196 -43 b 451 -12 368 -43 410 -33 z m 336 604 b 414 649 351 629 386 658 b 444 604 431 642 440 622 b 390 400 463 536 440 450 b 260 333 356 365 307 344 b 336 604 267 411 292 536 z "},"f":{"ha":564,"x_min":0,"x_max":0,"o":"m 258 -11 b 319 42 286 -4 322 14 b 294 513 306 199 296 356 b 461 519 315 513 440 517 b 488 532 471 519 481 525 b 453 615 518 564 496 615 b 296 610 400 614 347 611 b 328 825 297 668 303 771 b 379 860 340 847 353 860 b 447 778 425 860 444 818 b 447 722 447 760 442 740 b 482 700 453 707 467 700 b 504 706 489 700 497 701 b 532 839 540 725 539 797 b 347 1011 517 931 439 1011 b 118 603 163 1011 129 742 b 63 600 100 601 81 601 b 24 567 47 599 28 582 b 56 506 17 542 29 513 b 113 504 74 501 93 504 b 126 19 106 343 113 181 b 203 -19 126 -11 181 -19 b 258 -11 222 -19 240 -17 z "},"g":{"ha":767,"x_min":0,"x_max":0,"o":"m 631 -169 b 704 146 674 -71 693 39 b 715 672 722 321 717 497 b 619 725 715 708 646 725 b 517 664 576 725 536 704 b 371 717 476 697 424 717 b 111 561 264 717 164 651 b 33 236 53 465 29 347 b 221 -6 39 131 99 -6 b 513 308 364 -6 474 192 b 497 24 510 213 511 118 b 269 -265 476 -100 421 -265 b 163 -203 225 -265 183 -246 b 128 -133 157 -193 133 -143 b 94 -118 119 -124 107 -118 b 44 -168 67 -118 44 -140 b 335 -368 74 -312 196 -368 b 631 -169 482 -368 569 -304 z m 221 279 b 300 557 219 376 242 481 b 396 617 321 585 360 617 b 471 578 424 617 451 597 b 482 554 476 572 483 563 b 350 215 463 435 426 310 b 272 158 332 193 300 158 b 221 279 226 158 222 247 z "},"h":{"ha":829,"x_min":0,"x_max":0,"o":"m 289 19 b 461 554 289 111 329 554 b 485 546 469 554 478 551 b 529 383 515 522 525 422 b 579 46 539 269 539 153 b 714 -19 600 -4 665 -19 b 774 -12 735 -19 754 -18 b 813 58 804 -6 822 28 b 779 81 808 75 794 81 b 733 104 763 83 744 90 b 711 163 719 119 714 142 b 708 249 707 192 707 221 b 715 469 711 322 721 396 b 539 688 706 574 660 688 b 286 478 422 688 329 576 b 285 611 286 522 285 567 b 367 704 300 622 356 689 b 410 946 415 768 460 883 b 288 994 383 978 335 994 b 64 549 90 994 72 696 b 67 154 58 417 63 285 b 79 10 67 128 67 33 b 171 -22 94 -18 142 -22 b 289 19 194 -22 289 -14 z m 285 851 b 301 913 286 865 290 904 b 333 913 308 918 325 917 b 351 822 364 900 361 854 b 282 721 339 783 314 746 b 285 851 281 764 281 807 z "},"i":{"ha":401,"x_min":0,"x_max":0,"o":"m 317 796 b 260 981 372 856 339 965 b 235 983 251 982 243 983 b 97 919 185 983 124 963 b 83 874 89 906 88 889 b 131 754 74 838 100 776 b 186 736 146 742 167 735 b 317 796 231 736 288 764 z m 360 -8 b 360 61 382 13 385 47 b 290 92 338 74 306 72 b 257 181 269 115 261 149 b 253 332 249 231 250 282 b 285 635 258 433 278 533 b 197 699 285 685 240 699 b 86 635 151 699 101 682 b 50 394 63 557 51 475 b 78 178 49 322 56 247 b 319 -22 114 60 193 -18 b 360 -8 333 -22 350 -17 z "},"j":{"ha":339,"x_min":0,"x_max":0,"o":"m 199 817 b 208 819 200 818 207 818 b 258 944 265 832 290 896 b 254 958 257 946 254 957 b 224 990 247 971 238 983 b 218 993 222 992 219 992 b 172 1011 204 1006 189 1011 b 81 956 139 1011 103 988 b 72 926 79 953 74 931 b 104 821 56 890 69 842 b 156 808 119 813 138 808 b 199 817 171 808 186 811 z m 240 -26 b 275 656 289 196 278 428 b 167 710 275 694 194 710 b 76 625 103 710 81 685 b 53 -18 63 410 92 192 b -167 -283 31 -136 -26 -276 b -204 -340 -193 -283 -207 -314 b -176 -378 -201 -354 -190 -376 b -101 -383 -151 -382 -126 -383 b 240 -26 122 -383 200 -217 z "},"k":{"ha":785,"x_min":0,"x_max":0,"o":"m 289 19 b 289 47 289 24 288 44 b 326 260 297 119 310 190 b 700 4 400 126 551 31 b 715 1 706 3 710 1 b 719 99 779 1 781 88 b 432 271 610 118 496 179 b 710 543 564 292 710 397 b 571 685 710 632 657 685 b 286 457 436 685 340 569 b 285 611 286 508 286 560 b 367 704 300 622 356 689 b 410 946 415 768 460 883 b 288 994 383 978 335 994 b 64 549 90 994 72 696 b 67 154 58 417 63 285 b 79 10 67 128 67 33 b 171 -22 94 -18 142 -22 b 289 19 194 -22 289 -14 z m 285 851 b 301 913 286 865 290 904 b 333 913 308 918 325 917 b 351 822 364 900 361 854 b 282 721 339 783 314 746 b 285 851 281 764 281 807 z m 494 565 b 538 583 506 572 524 583 b 547 581 540 583 544 583 b 550 518 564 569 556 538 b 357 365 521 439 443 371 b 494 565 385 440 428 519 z "},"l":{"ha":451,"x_min":0,"x_max":0,"o":"m 289 19 b 285 611 289 217 286 414 b 367 704 300 622 356 689 b 410 946 415 768 460 883 b 288 994 383 978 335 994 b 64 549 90 994 72 696 b 67 154 58 417 63 285 b 79 10 67 128 67 33 b 171 -22 94 -18 142 -22 b 289 19 194 -22 289 -14 z m 285 851 b 301 913 286 865 290 904 b 333 913 308 918 325 917 b 351 822 364 900 361 854 b 282 721 339 783 314 746 b 285 851 281 764 281 807 z "},"m":{"ha":1275,"x_min":0,"x_max":0,"o":"m 181 -3 b 281 29 207 -1 265 7 b 286 100 288 39 285 86 b 457 574 293 185 333 574 b 511 514 489 574 503 540 b 529 431 519 488 525 458 b 551 196 540 353 544 274 b 588 42 556 161 564 64 b 654 21 603 28 629 21 b 729 61 678 21 729 29 b 825 522 738 189 763 410 b 904 588 843 556 875 588 b 957 525 938 588 950 551 b 969 435 964 496 967 465 b 1021 83 981 317 979 193 b 1047 44 1026 68 1036 54 b 1157 14 1078 22 1119 14 b 1258 74 1200 14 1256 21 b 1247 106 1258 85 1256 97 b 1203 119 1236 117 1218 114 b 1151 253 1160 132 1151 208 b 1157 501 1150 336 1164 419 b 1117 643 1154 551 1143 601 b 983 721 1088 688 1036 721 b 717 483 851 721 761 592 b 536 706 706 585 653 706 b 276 486 413 706 321 590 b 275 640 276 538 275 589 b 174 700 275 683 207 700 b 92 681 144 700 117 693 b 49 628 75 672 50 646 b 60 228 46 494 54 361 b 78 26 61 189 57 58 b 181 -3 93 3 153 -3 z "},"n":{"ha":824,"x_min":0,"x_max":0,"o":"m 242 8 b 281 32 257 13 274 18 b 282 92 285 40 282 82 b 454 576 289 178 329 576 b 478 568 463 576 471 574 b 521 406 508 544 518 444 b 572 69 531 293 531 175 b 707 3 589 18 660 3 b 765 10 726 3 747 4 b 806 81 797 18 815 50 b 772 103 800 97 789 103 b 703 185 726 110 711 143 b 701 271 700 214 700 243 b 707 492 704 344 713 418 b 599 693 701 568 675 658 b 526 710 578 704 551 710 b 329 590 451 710 372 647 b 275 493 307 561 290 528 b 274 642 275 543 274 593 b 174 700 274 683 207 700 b 49 632 129 700 61 682 b 49 551 46 621 49 564 b 60 194 50 432 56 314 b 74 29 61 165 60 56 b 167 -3 90 1 136 -3 b 242 8 192 -3 218 0 z "},"o":{"ha":646,"x_min":0,"x_max":0,"o":"m 614 306 b 571 524 621 379 604 457 b 311 668 519 628 425 668 b 65 513 196 668 107 622 b 35 300 38 446 31 371 b 297 -6 46 143 125 -6 b 614 306 467 -6 601 143 z m 325 99 b 242 272 268 115 243 213 b 275 464 239 338 251 404 b 386 554 296 514 339 554 b 507 435 449 554 492 489 b 506 257 524 378 522 314 b 431 131 493 210 468 163 b 325 99 403 107 361 90 z "},"p":{"ha":810,"x_min":0,"x_max":0,"o":"m 226 -368 b 271 -335 244 -364 271 -353 b 274 49 271 -207 272 -79 b 382 28 307 33 346 28 b 742 260 544 28 674 110 b 765 536 779 343 793 449 b 558 700 738 625 653 700 b 276 511 433 700 338 613 l 276 676 b 196 726 276 717 228 726 b 54 643 153 726 58 697 b 56 74 46 454 57 264 b 57 -278 54 -43 53 -161 b 64 -347 57 -292 57 -336 b 158 -379 81 -374 129 -379 b 226 -368 182 -379 204 -375 z m 292 149 b 274 171 288 157 282 165 b 275 232 274 181 272 224 b 492 572 296 324 372 572 b 556 442 550 572 556 485 b 369 124 554 339 501 124 b 292 149 343 124 315 135 z "},"q":{"ha":785,"x_min":0,"x_max":0,"o":"m 867 -294 b 867 -208 875 -268 874 -236 b 808 -89 856 -165 835 -124 b 725 6 796 -74 740 -6 b 733 658 726 224 733 440 b 617 701 733 690 639 701 b 536 681 590 701 558 697 b 429 700 503 694 465 700 b 69 469 265 700 140 621 b 46 192 31 385 17 281 b 256 28 74 103 160 28 b 507 175 361 28 446 93 b 729 -378 510 28 517 -378 b 867 -294 788 -378 850 -349 z m 256 286 b 442 604 258 388 310 604 b 514 583 467 604 492 596 b 508 399 513 560 508 421 l 508 394 b 321 156 483 322 413 156 b 256 286 261 156 256 242 z m 744 -297 b 731 -275 736 -294 733 -283 b 722 -219 725 -257 724 -237 b 721 -103 719 -181 721 -142 b 797 -250 764 -137 800 -196 b 783 -289 797 -264 793 -279 b 744 -297 775 -296 756 -301 z "},"r":{"ha":685,"x_min":0,"x_max":0,"o":"m 233 6 b 281 33 246 8 275 21 b 282 82 285 40 282 75 b 431 518 296 196 354 425 b 481 551 443 533 461 551 b 506 538 490 551 499 544 b 581 506 526 519 553 506 b 667 618 639 506 682 561 b 536 714 650 678 596 714 b 275 493 418 714 317 592 b 274 642 275 543 274 593 b 174 700 274 683 207 700 b 49 632 129 700 61 682 b 49 551 46 621 49 564 b 60 194 50 432 56 314 b 74 29 61 165 60 56 b 169 -3 89 1 140 -3 b 233 6 192 -3 213 0 z "},"s":{"ha":531,"x_min":0,"x_max":0,"o":"m 481 100 b 490 217 500 133 501 179 b 403 368 474 272 439 322 b 278 513 364 418 319 465 b 206 635 256 539 200 601 b 267 664 210 657 247 664 b 399 610 314 664 364 642 b 438 590 410 600 422 590 b 476 660 468 590 488 628 b 453 693 472 672 463 683 b 251 764 399 738 324 764 b 97 711 194 764 139 747 b 56 644 79 693 63 669 b 60 553 49 615 50 582 b 138 413 75 501 103 454 b 249 289 172 369 213 331 b 306 183 275 258 300 222 b 267 107 310 149 296 122 b 214 96 250 99 232 96 b 122 143 178 96 140 111 b 76 169 113 160 94 169 b 32 135 57 169 38 157 b 74 50 25 108 54 67 b 249 -3 121 10 188 -3 b 481 100 331 -3 436 25 z "},"t":{"ha":596,"x_min":0,"x_max":0,"o":"m 553 32 b 550 106 574 53 574 88 b 528 114 544 111 536 115 b 508 104 521 113 514 108 b 456 54 490 88 476 65 b 419 44 444 49 432 44 b 382 75 400 44 389 58 b 365 131 374 93 369 111 b 356 325 354 194 354 260 b 369 586 357 413 363 499 b 522 590 421 588 471 589 b 554 676 568 593 590 647 b 522 688 546 685 533 689 b 378 683 474 686 426 685 b 399 904 381 711 397 876 b 386 939 400 917 396 929 b 340 961 375 950 357 957 b 201 901 288 971 217 954 b 163 675 179 829 169 751 b 56 661 126 672 92 667 b 33 574 13 656 -1 599 b 64 565 43 568 54 564 b 156 578 76 565 144 576 b 168 292 153 482 154 386 b 401 -49 185 165 239 -49 b 553 32 456 -49 517 -6 z "},"u":{"ha":793,"x_min":0,"x_max":0,"o":"m 761 10 b 760 79 782 29 786 64 b 690 108 738 92 707 89 b 658 196 671 133 663 165 b 653 325 651 239 651 282 b 675 558 656 403 665 481 b 685 669 676 576 688 653 b 597 717 675 706 629 717 b 490 663 558 717 507 701 b 475 606 488 654 476 614 b 450 401 460 539 451 469 b 432 311 450 388 436 324 b 375 174 419 263 404 214 b 307 131 360 154 332 131 b 256 217 272 131 260 190 b 249 383 247 272 247 328 b 264 642 250 469 256 556 b 221 689 265 663 240 682 b 158 700 203 696 181 700 b 53 626 111 700 53 682 b 50 269 47 508 42 389 b 229 1 56 150 81 1 b 476 201 344 1 432 106 b 719 -4 514 81 589 0 b 761 10 735 -4 750 0 z "},"v":{"ha":664,"x_min":0,"x_max":0,"o":"m 344 -4 b 608 429 506 26 581 290 b 633 686 625 514 635 600 b 626 717 633 697 633 708 b 590 733 618 728 604 733 b 538 692 565 733 539 717 b 360 121 529 607 474 121 b 276 306 308 121 283 268 b 236 651 256 419 246 536 b 144 736 232 703 196 736 b 32 613 78 736 26 681 b 221 32 47 454 83 140 b 344 -4 254 6 301 -10 z "},"w":{"ha":1067,"x_min":0,"x_max":0,"o":"m 994 342 b 1036 656 1022 443 1036 550 b 993 701 1036 683 1022 701 b 939 661 968 701 942 686 b 835 193 926 528 896 313 b 764 124 819 164 793 124 b 715 167 739 124 725 147 b 681 307 694 210 688 260 b 651 596 667 403 660 500 b 560 681 649 647 613 681 b 456 615 515 681 475 657 b 447 558 449 597 446 578 b 485 297 456 471 467 383 b 422 169 469 253 451 207 b 350 131 407 149 374 121 b 235 660 261 161 238 583 b 136 725 235 704 171 725 b 39 672 97 725 54 710 b 31 619 31 656 29 638 b 243 22 49 460 85 115 b 324 3 267 8 294 3 b 529 157 419 3 486 76 b 722 -3 567 74 624 -3 b 994 342 879 -3 961 217 z "},"x":{"ha":663,"x_min":0,"x_max":0,"o":"m 106 17 b 303 246 171 93 238 169 b 369 144 325 213 349 179 b 461 15 385 119 435 29 b 485 10 468 13 476 10 b 636 118 532 10 631 75 b 633 131 638 122 636 126 b 454 421 576 229 515 325 b 614 607 507 483 560 544 b 613 669 629 624 629 654 b 574 686 601 681 588 686 b 544 674 563 686 553 682 b 399 507 524 654 418 528 b 275 707 357 574 314 639 b 232 728 267 722 250 728 b 88 629 175 728 107 681 b 86 582 82 615 79 596 b 247 331 135 496 192 414 b 32 81 175 247 103 164 b 68 -3 -1 43 31 -3 b 106 17 81 -3 94 3 z "},"y":{"ha":718,"x_min":0,"x_max":0,"o":"m 658 151 b 668 657 674 319 669 489 b 654 693 668 669 663 683 b 593 713 639 708 614 713 b 496 681 558 713 522 701 b 469 647 488 674 471 657 b 468 542 469 633 468 556 b 375 174 458 439 438 260 b 307 131 360 154 332 131 b 256 217 272 131 260 190 b 249 383 247 272 247 328 b 264 642 250 469 256 556 b 221 689 265 663 240 682 b 158 700 203 696 181 700 b 53 626 111 700 53 682 b 50 269 47 508 42 389 b 229 1 56 150 81 1 b 471 190 339 1 428 97 b 392 -174 467 67 451 -64 b 257 -285 361 -226 311 -285 b 168 -218 218 -285 183 -253 b 133 -151 163 -207 142 -160 b 107 -140 126 -144 117 -140 b 56 -204 72 -136 47 -169 b 296 -385 93 -321 176 -385 b 658 151 579 -385 639 -71 z "},"z":{"ha":563,"x_min":0,"x_max":0,"o":"m 507 -78 b 529 101 529 -22 539 42 b 314 351 511 221 421 304 b 500 596 399 403 493 490 b 467 700 503 635 492 671 b 303 768 426 744 363 768 b 29 618 199 768 89 699 b 17 592 24 610 18 601 b 65 540 14 563 38 540 b 107 561 82 540 96 550 b 256 644 143 603 199 644 b 315 610 282 644 306 635 b 243 476 333 568 275 508 b 135 382 208 443 171 414 b 121 343 124 372 121 357 b 160 279 122 318 138 288 b 324 94 242 244 299 181 b 322 -110 342 28 342 -46 b 183 -253 304 -168 254 -253 b 157 -244 174 -253 164 -250 b 140 -197 143 -235 139 -214 b 179 -100 142 -162 158 -129 b 192 -67 186 -90 192 -79 b 144 -17 192 -40 169 -17 b 42 -171 93 -17 50 -132 b 56 -283 33 -207 36 -251 b 175 -343 82 -326 126 -343 b 507 -78 319 -343 457 -203 z "},"~":{"ha":746,"x_min":0,"x_max":0,"o":"m 656 389 b 706 501 665 406 701 483 b 678 583 714 529 704 571 b 661 588 672 586 667 588 b 618 554 643 588 625 572 b 561 439 601 514 586 474 b 524 407 551 425 539 413 b 504 404 517 406 511 404 b 432 449 472 404 451 428 b 322 546 397 483 365 522 b 228 568 293 560 261 568 b 113 517 182 568 146 549 b 47 415 85 488 61 453 b 42 342 40 392 36 365 b 92 297 47 315 68 297 b 140 361 125 297 139 333 b 140 371 140 363 139 369 b 231 440 160 407 188 440 b 296 419 254 440 278 432 b 368 351 324 401 346 375 b 504 276 404 311 447 276 b 656 389 575 276 624 331 z "}," ":{"ha":417,"x_min":0,"x_max":0,"o":""},"¡":{"ha":371,"x_min":0,"x_max":0,"o":"m 225 663 b 167 672 207 669 186 672 b 129 668 154 672 142 671 b 82 589 96 658 74 622 b 153 513 89 554 119 521 b 172 504 160 510 165 506 b 203 500 183 501 193 500 b 225 663 294 500 326 626 z m 240 -308 b 271 -285 249 -300 263 -294 b 300 -211 288 -265 296 -237 b 314 146 319 -93 315 26 b 179 407 314 240 308 407 b 61 235 79 407 64 313 b 58 72 58 181 60 126 b 74 -206 58 -21 58 -114 b 153 -329 82 -262 97 -304 b 183 -335 163 -333 174 -335 b 240 -308 208 -335 224 -325 z "},"¨":{"ha":468,"x_min":0,"x_max":0,"o":"m 157 821 b 153 903 186 842 183 885 b 125 913 144 908 132 907 b 93 924 117 919 104 924 b 46 832 42 924 7 865 b 128 813 68 813 100 814 b 157 821 138 811 149 815 z m 408 779 b 406 869 450 797 450 858 b 365 875 393 874 378 879 b 343 790 326 865 313 817 b 390 776 354 782 374 776 b 408 779 397 776 404 776 z "},"«":{"ha":903,"x_min":0,"x_max":0,"o":"m 392 233 b 156 310 314 261 236 288 b 286 399 197 342 242 371 b 472 513 349 438 410 475 b 468 600 507 535 506 583 b 449 604 463 603 456 604 b 424 597 440 604 431 601 b 194 456 347 551 269 504 b 43 322 153 429 61 369 b 64 243 31 296 40 261 b 161 208 92 224 128 217 b 358 142 228 190 293 165 b 378 139 365 139 372 139 b 392 233 428 139 447 214 z m 856 288 b 799 315 842 304 819 311 b 604 347 735 331 665 325 b 729 453 626 385 693 435 b 718 542 768 471 761 531 b 688 540 708 544 697 544 b 508 371 631 514 529 433 b 514 297 499 349 500 318 b 574 254 526 276 550 263 b 774 222 638 233 707 233 b 819 207 788 219 801 207 b 856 288 860 211 882 256 z "},"­":{"ha":0,"x_min":0,"x_max":0,"o":""},"¯":{"ha":522,"x_min":0,"x_max":0,"o":"m 86 725 b 461 800 132 736 417 788 b 492 831 475 804 488 817 b 435 893 501 867 472 903 b 183 844 351 874 268 860 b 47 810 158 839 67 826 b 56 729 21 788 24 744 b 86 725 64 725 76 722 z "},"´":{"ha":307,"x_min":0,"x_max":0,"o":"m 111 824 b 186 894 136 847 157 875 b 254 932 207 908 231 919 b 246 1019 292 950 286 1010 b 213 1019 236 1024 224 1024 b 43 892 129 981 103 956 b 76 811 15 861 36 814 b 111 824 89 810 103 814 z "},"¸":{"ha":117,"x_min":0,"x_max":0,"o":"m 58 -390 b 142 -279 88 -356 119 -319 b 165 -207 154 -257 167 -232 b 51 -110 158 -140 107 -125 b 82 -69 60 -96 71 -83 b 101 -47 89 -62 97 -56 b 60 26 122 -11 92 26 b -56 -112 21 26 -49 -74 b -15 -189 -61 -144 -46 -175 b 65 -217 11 -201 39 -206 b -17 -328 47 -258 14 -293 b 21 -410 -47 -365 -15 -410 b 58 -390 33 -410 47 -404 z "},"»":{"ha":854,"x_min":0,"x_max":0,"o":"m 108 163 b 306 213 175 179 240 194 b 425 275 349 225 399 238 b 425 343 438 293 435 324 b 204 508 401 389 249 481 b 126 556 193 514 136 549 b 94 568 115 564 106 568 b 58 488 57 568 28 524 b 151 426 69 474 136 436 b 317 318 207 392 264 358 b 92 258 243 293 167 276 b 53 201 65 253 46 228 b 108 163 60 176 83 157 z m 758 236 b 811 328 783 261 806 293 b 783 417 817 360 807 393 b 676 482 756 447 715 467 b 628 508 660 489 640 494 b 592 525 618 519 606 525 b 547 497 574 525 556 515 b 588 415 532 465 557 432 b 700 363 625 396 667 388 b 715 344 706 358 717 351 b 507 167 707 300 543 185 b 475 151 496 161 483 160 b 504 67 444 121 461 67 b 758 236 565 67 713 192 z "},"¿":{"ha":546,"x_min":0,"x_max":0,"o":"m 481 558 b 481 567 481 561 479 564 b 442 678 499 604 479 661 b 403 686 429 683 415 686 b 290 550 336 686 272 618 b 386 476 303 501 335 476 b 481 558 432 476 476 506 z m 524 -254 b 594 -76 571 -211 628 -131 b 546 -50 583 -60 564 -50 b 504 -75 529 -50 513 -58 b 500 -149 493 -97 507 -125 b 358 -247 490 -203 408 -247 b 274 -161 313 -247 286 -199 b 346 121 238 -64 253 74 b 456 174 382 139 429 143 b 482 232 469 190 478 211 b 443 424 493 283 483 390 b 410 436 433 432 421 436 b 360 393 386 436 363 419 b 381 333 358 372 376 353 b 364 254 386 307 382 274 b 268 211 351 242 285 218 b 11 -50 144 163 11 101 b 283 -351 11 -193 133 -351 b 524 -254 374 -351 458 -315 z "},"À":{"ha":810,"x_min":0,"x_max":0,"o":"m 722 6 b 792 103 763 24 806 61 b 531 907 701 371 639 647 b 500 969 521 929 517 953 b 440 989 486 983 463 989 b 288 890 378 989 311 949 b 221 699 278 867 229 724 b 14 46 193 614 35 133 b 26 8 10 31 14 18 b 64 -6 38 -1 51 -6 b 110 26 83 -6 103 6 b 206 319 142 125 174 222 b 494 344 300 335 397 340 b 604 24 532 238 568 131 b 658 -8 613 0 633 -8 b 722 6 679 -8 703 -3 z m 490 1146 b 344 1236 461 1172 383 1240 b 306 1161 306 1233 283 1192 b 331 1142 311 1153 321 1144 b 364 1125 342 1139 353 1133 b 428 1071 386 1108 407 1090 b 464 1060 438 1063 451 1058 b 490 1146 508 1064 524 1118 z m 349 764 l 461 439 b 239 422 386 436 313 432 b 349 764 275 536 311 650 z "},"Á":{"ha":810,"x_min":0,"x_max":0,"o":"m 722 6 b 792 103 763 24 806 61 b 531 907 701 371 639 647 b 500 969 521 929 517 953 b 440 989 486 983 463 989 b 288 890 378 989 311 949 b 221 699 278 867 229 724 b 14 46 193 614 35 133 b 26 8 10 31 14 18 b 64 -6 38 -1 51 -6 b 110 26 83 -6 103 6 b 206 319 142 125 174 222 b 494 344 300 335 397 340 b 604 24 532 238 568 131 b 658 -8 613 0 633 -8 b 722 6 679 -8 703 -3 z m 399 1064 b 482 1128 413 1069 469 1118 b 539 1167 500 1140 519 1154 b 553 1222 554 1178 561 1204 b 507 1253 544 1242 525 1253 b 350 1146 475 1253 375 1168 b 368 1063 319 1121 329 1072 b 399 1064 378 1060 389 1060 z m 349 764 l 461 439 b 239 422 386 436 313 432 b 349 764 275 536 311 650 z "},"Â":{"ha":810,"x_min":0,"x_max":0,"o":"m 722 6 b 792 103 763 24 806 61 b 531 907 701 371 639 647 b 500 969 521 929 517 953 b 440 989 486 983 463 989 b 288 890 378 989 311 949 b 221 699 278 867 229 724 b 14 46 193 614 35 133 b 26 8 10 31 14 18 b 64 -6 38 -1 51 -6 b 110 26 83 -6 103 6 b 206 319 142 125 174 222 b 494 344 300 335 397 340 b 604 24 532 238 568 131 b 658 -8 613 0 633 -8 b 722 6 679 -8 703 -3 z m 314 1051 b 450 1146 343 1064 417 1146 b 564 1082 474 1143 544 1096 b 588 1075 571 1078 579 1075 b 636 1135 617 1075 644 1103 b 619 1163 633 1144 628 1156 b 481 1239 576 1193 532 1225 b 447 1243 469 1242 458 1243 b 400 1233 432 1243 415 1240 b 285 1149 357 1215 321 1181 b 271 1143 283 1147 272 1144 b 276 1053 235 1122 239 1069 b 314 1051 288 1047 303 1046 z m 349 764 l 461 439 b 239 422 386 436 313 432 b 349 764 275 536 311 650 z "},"Ã":{"ha":810,"x_min":0,"x_max":0,"o":"m 722 6 b 792 103 763 24 806 61 b 531 907 701 371 639 647 b 500 969 521 929 517 953 b 440 989 486 983 463 989 b 288 890 378 989 311 949 b 221 699 278 867 229 724 b 14 46 193 614 35 133 b 26 8 10 31 14 18 b 64 -6 38 -1 51 -6 b 110 26 83 -6 103 6 b 206 319 142 125 174 222 b 494 344 300 335 397 340 b 604 24 532 238 568 131 b 658 -8 613 0 633 -8 b 722 6 679 -8 703 -3 z m 340 1068 b 385 1094 349 1074 374 1093 b 454 1079 399 1094 443 1082 b 501 1074 469 1076 485 1074 b 593 1128 543 1074 569 1094 b 551 1207 618 1164 594 1211 b 518 1190 539 1207 526 1200 b 503 1169 515 1188 507 1172 b 490 1171 500 1169 493 1171 b 385 1192 454 1176 421 1192 b 301 1160 356 1192 326 1176 b 285 1153 300 1158 286 1154 b 276 1067 251 1133 246 1088 b 306 1058 285 1061 294 1058 b 340 1068 318 1058 331 1063 z m 349 764 l 461 439 b 239 422 386 436 313 432 b 349 764 275 536 311 650 z "},"Ä":{"ha":810,"x_min":0,"x_max":0,"o":"m 722 6 b 792 103 763 24 806 61 b 531 907 701 371 639 647 b 500 969 521 929 517 953 b 440 989 486 983 463 989 b 288 890 378 989 311 949 b 221 699 278 867 229 724 b 14 46 193 614 35 133 b 26 8 10 31 14 18 b 64 -6 38 -1 51 -6 b 110 26 83 -6 103 6 b 206 319 142 125 174 222 b 494 344 300 335 397 340 b 604 24 532 238 568 131 b 658 -8 613 0 633 -8 b 722 6 679 -8 703 -3 z m 332 1172 b 294 1190 322 1185 308 1190 b 250 1158 276 1190 257 1179 b 297 1089 238 1125 263 1086 b 332 1172 339 1093 360 1140 z m 590 1167 b 542 1207 583 1190 564 1207 b 489 1175 524 1207 497 1189 b 532 1103 471 1143 494 1099 b 590 1167 567 1106 599 1133 z m 349 764 l 461 439 b 239 422 386 436 313 432 b 349 764 275 536 311 650 z "},"Å":{"ha":810,"x_min":0,"x_max":0,"o":"m 722 6 b 792 103 763 24 806 61 b 531 907 701 371 639 647 b 499 971 521 929 515 956 b 610 1099 551 993 599 1043 b 592 1196 617 1132 608 1168 b 504 1294 568 1233 538 1267 b 453 1311 490 1306 469 1315 b 442 1310 449 1310 444 1308 b 418 1314 435 1313 426 1314 b 388 1304 407 1314 396 1311 b 308 1076 318 1257 285 1157 b 386 979 321 1038 350 1000 b 288 890 344 964 304 932 b 221 699 278 867 229 724 b 14 46 193 614 35 133 b 26 8 10 31 14 18 b 64 -6 38 -1 51 -6 b 110 26 83 -6 103 6 b 206 319 142 125 174 222 b 494 344 300 335 397 340 b 604 24 532 238 568 131 b 658 -8 613 0 633 -8 b 722 6 679 -8 703 -3 z m 349 764 l 461 439 b 239 422 386 436 313 432 b 349 764 275 536 311 650 z m 408 1092 b 401 1158 397 1111 394 1138 b 431 1215 407 1179 417 1199 b 444 1218 432 1217 442 1219 b 515 1119 467 1199 518 1150 b 451 1058 515 1096 474 1058 b 408 1092 432 1058 418 1076 z "},"Æ":{"ha":1139,"x_min":0,"x_max":0,"o":"m 724 -3 b 1074 28 778 0 1022 11 b 1079 115 1115 42 1118 97 b 1038 119 1067 121 1051 121 b 760 99 946 103 853 106 b 758 478 760 225 758 351 b 874 481 775 479 826 481 b 950 478 907 481 938 481 b 990 563 1001 465 1035 532 b 874 579 971 576 922 579 b 757 575 826 579 781 576 b 756 926 757 693 756 810 b 1053 919 854 924 954 917 b 1099 929 1068 919 1086 919 b 1081 1017 1132 954 1122 1008 b 990 1018 1068 1018 1003 1018 b 793 1025 925 1021 860 1025 b 585 997 735 1025 639 1022 b 388 908 515 997 428 968 b 314 768 358 864 336 815 b 113 318 242 621 175 469 b 10 53 97 283 21 89 b 43 13 3 32 21 15 b 54 13 46 13 50 13 b 133 53 83 13 122 26 b 239 324 172 142 206 233 b 243 325 239 325 242 325 b 535 347 340 336 438 343 b 544 56 533 250 536 153 b 669 -6 551 -4 621 -6 b 724 -3 688 -6 706 -4 z m 400 721 b 553 919 432 788 486 882 b 536 444 551 761 542 603 b 276 426 450 442 363 436 b 400 721 314 526 351 626 z m 451 218 l 449 214 b 451 218 449 214 450 218 z "},"Ç":{"ha":715,"x_min":0,"x_max":0,"o":"m 535 -168 b 531 -96 544 -146 543 -118 b 467 -44 517 -72 492 -56 b 343 -29 429 -29 385 -26 l 356 -8 b 367 3 357 -4 363 3 b 632 140 471 3 571 58 b 682 231 643 156 679 211 b 633 285 685 261 660 285 b 589 254 613 285 597 272 b 417 110 557 193 492 114 b 343 144 389 110 361 125 b 294 254 318 175 304 215 b 279 472 278 325 275 400 b 321 715 283 554 296 638 b 465 885 343 782 394 886 b 524 856 486 883 507 869 b 588 761 551 829 571 796 b 632 732 597 742 614 732 b 679 775 654 732 676 747 b 594 910 685 814 624 882 b 399 988 542 958 471 988 b 85 686 224 988 131 833 b 53 333 50 574 36 450 b 260 22 72 207 131 69 b 228 -65 246 -6 228 -35 b 300 -129 229 -108 260 -129 b 369 -125 322 -129 346 -125 b 440 -140 394 -126 419 -128 b 428 -154 436 -144 433 -150 b 315 -219 396 -183 357 -208 b 268 -240 299 -224 279 -228 b 289 -318 246 -267 257 -308 b 304 -319 293 -319 299 -319 b 535 -168 372 -319 508 -239 z "},"È":{"ha":679,"x_min":0,"x_max":0,"o":"m 461 1186 b 388 1236 453 1197 399 1228 b 343 1275 381 1240 350 1269 b 313 1288 333 1285 322 1288 b 269 1214 279 1288 249 1250 b 325 1161 275 1203 314 1169 b 424 1107 343 1147 400 1107 b 461 1186 461 1107 490 1151 z m 264 -21 b 614 11 318 -18 564 -6 b 619 99 657 24 660 79 b 579 101 607 104 592 104 b 300 82 488 86 393 89 b 299 461 300 208 299 335 b 490 460 328 463 461 467 b 532 544 542 449 575 515 b 411 563 511 558 461 563 b 297 558 365 563 321 560 b 296 908 297 675 296 792 b 593 901 396 907 494 900 b 639 913 610 901 626 903 b 622 999 672 938 663 992 b 607 1000 617 1000 613 1000 b 338 1007 518 1000 428 1007 b 99 956 281 1007 124 1006 b 94 938 96 950 94 943 b 86 39 93 638 58 338 b 215 -22 86 -22 171 -22 b 264 -21 232 -22 247 -21 z "},"É":{"ha":679,"x_min":0,"x_max":0,"o":"m 414 1096 b 510 1172 443 1124 478 1146 b 535 1203 519 1181 531 1190 b 503 1265 542 1229 529 1258 b 489 1267 499 1267 493 1267 b 456 1256 476 1267 464 1264 b 339 1154 438 1238 349 1178 b 382 1082 321 1118 350 1082 b 414 1096 393 1082 404 1086 z m 264 -21 b 614 11 318 -18 564 -6 b 619 99 657 24 660 79 b 579 101 607 104 592 104 b 300 82 488 86 393 89 b 299 461 300 208 299 335 b 490 460 328 463 461 467 b 532 544 542 449 575 515 b 411 563 511 558 461 563 b 297 558 365 563 321 560 b 296 908 297 675 296 792 b 593 901 396 907 494 900 b 639 913 610 901 626 903 b 622 999 672 938 663 992 b 607 1000 617 1000 613 1000 b 338 1007 518 1000 428 1007 b 99 956 281 1007 124 1006 b 94 938 96 950 94 943 b 86 39 93 638 58 338 b 215 -22 86 -22 171 -22 b 264 -21 232 -22 247 -21 z "},"Ê":{"ha":679,"x_min":0,"x_max":0,"o":"m 329 1101 b 381 1157 339 1124 361 1140 b 392 1163 383 1160 389 1165 b 457 1097 404 1156 447 1108 b 496 1079 468 1085 482 1079 b 543 1122 519 1079 542 1096 b 532 1160 544 1135 540 1150 b 442 1246 504 1190 476 1224 b 392 1261 426 1256 408 1261 b 268 1182 343 1261 297 1215 b 240 1144 257 1171 246 1160 b 286 1076 228 1110 253 1076 b 329 1101 304 1076 321 1086 z m 264 -21 b 614 11 318 -18 564 -6 b 619 99 657 24 660 79 b 579 101 607 104 592 104 b 300 82 488 86 393 89 b 299 461 300 208 299 335 b 490 460 328 463 461 467 b 532 544 542 449 575 515 b 411 563 511 558 461 563 b 297 558 365 563 321 560 b 296 908 297 675 296 792 b 593 901 396 907 494 900 b 639 913 610 901 626 903 b 622 999 672 938 663 992 b 607 1000 617 1000 613 1000 b 338 1007 518 1000 428 1007 b 99 956 281 1007 124 1006 b 94 938 96 950 94 943 b 86 39 93 638 58 338 b 215 -22 86 -22 171 -22 b 264 -21 232 -22 247 -21 z "},"Ë":{"ha":679,"x_min":0,"x_max":0,"o":"m 517 1174 b 479 1192 507 1186 493 1192 b 435 1160 461 1192 442 1181 b 481 1088 422 1126 444 1088 b 517 1174 525 1088 544 1140 z m 278 1097 b 249 1183 311 1125 292 1183 b 197 1168 232 1183 210 1179 b 231 1082 163 1133 186 1082 b 278 1097 244 1082 268 1090 z m 264 -21 b 614 11 318 -18 564 -6 b 619 99 657 24 660 79 b 579 101 607 104 592 104 b 300 82 488 86 393 89 b 299 461 300 208 299 335 b 490 460 328 463 461 467 b 532 544 542 449 575 515 b 411 563 511 558 461 563 b 297 558 365 563 321 560 b 296 908 297 675 296 792 b 593 901 396 907 494 900 b 639 913 610 901 626 903 b 622 999 672 938 663 992 b 607 1000 617 1000 613 1000 b 338 1007 518 1000 428 1007 b 99 956 281 1007 124 1006 b 94 938 96 950 94 943 b 86 39 93 638 58 338 b 215 -22 86 -22 171 -22 b 264 -21 232 -22 247 -21 z "},"Ì":{"ha":379,"x_min":0,"x_max":0,"o":"m 257 1160 b 232 1193 253 1172 244 1186 b 113 1247 192 1211 150 1225 b 92 1269 104 1253 100 1264 b 61 1279 82 1276 71 1279 b 19 1207 28 1279 0 1243 b 86 1150 32 1181 60 1164 b 210 1101 106 1140 190 1101 b 257 1160 238 1101 265 1129 z m 261 -11 b 299 18 275 -6 299 4 b 294 944 299 328 294 636 b 288 965 294 953 292 958 b 199 992 272 985 233 992 b 92 942 167 992 92 982 b 75 214 92 699 72 456 b 85 31 76 153 79 92 b 179 -24 92 -17 139 -24 b 261 -11 208 -24 239 -18 z "},"Í":{"ha":378,"x_min":0,"x_max":0,"o":"m 213 1068 b 258 1119 222 1074 251 1111 b 360 1224 272 1135 349 1207 b 322 1303 385 1260 358 1303 b 297 1296 314 1303 306 1300 b 256 1254 290 1292 263 1261 b 143 1128 235 1233 153 1156 b 189 1061 131 1093 158 1061 b 213 1068 197 1061 204 1064 z m 261 -11 b 299 18 275 -6 299 4 b 294 944 299 328 294 636 b 288 965 294 953 292 958 b 199 992 272 985 233 992 b 92 942 167 992 92 982 b 75 214 92 699 72 456 b 85 31 76 153 79 92 b 181 -24 92 -17 140 -24 b 261 -11 210 -24 240 -18 z "},"Î":{"ha":382,"x_min":0,"x_max":0,"o":"m 67 1064 b 97 1081 78 1068 88 1074 b 217 1156 117 1093 193 1150 b 253 1136 226 1156 244 1143 b 306 1094 271 1124 289 1108 b 339 1082 317 1085 328 1082 b 368 1169 378 1082 408 1136 b 272 1239 338 1194 308 1221 b 199 1251 250 1250 222 1256 b 74 1181 151 1242 113 1208 b 24 1153 57 1171 42 1158 b -4 1126 13 1147 1 1138 b 43 1058 -19 1092 8 1058 b 67 1064 50 1058 58 1060 z m 263 -11 b 300 18 276 -6 300 4 b 296 944 300 328 296 636 b 200 992 296 986 231 992 b 94 942 168 992 94 982 b 76 214 93 699 74 456 b 86 31 78 153 81 92 b 182 -24 93 -17 142 -24 b 263 -11 211 -24 242 -18 z "},"Ï":{"ha":379,"x_min":0,"x_max":0,"o":"m 361 1111 b 310 1168 364 1144 339 1168 b 289 1164 303 1168 296 1167 b 271 1085 256 1153 246 1110 b 310 1068 282 1074 296 1068 b 361 1111 335 1068 358 1085 z m 131 1076 b 115 1158 160 1100 151 1149 b 99 1161 110 1160 104 1161 b 44 1113 69 1161 44 1142 b 96 1063 44 1083 69 1063 b 131 1076 108 1063 119 1067 z m 263 -11 b 300 18 276 -6 300 4 b 296 944 300 328 296 636 b 289 965 296 953 293 958 b 199 992 272 985 233 992 b 93 942 168 992 93 982 b 76 214 93 699 72 456 b 85 31 76 153 79 92 b 181 -24 92 -17 140 -24 b 263 -11 210 -24 240 -18 z "},"Ð":{"ha":958,"x_min":0,"x_max":0,"o":"m 329 -7 b 433 1 364 -11 399 -6 b 918 563 697 51 896 300 b 888 799 924 642 914 724 b 633 988 849 904 749 988 b 351 754 490 988 406 874 l 351 944 b 344 965 351 953 349 958 b 256 992 329 985 290 992 b 149 942 224 992 149 982 b 136 485 149 789 140 638 l 71 485 b 71 388 4 483 4 386 l 133 388 b 142 31 131 268 129 149 b 243 -24 149 -18 203 -24 b 329 -7 272 -24 303 -18 z m 354 322 b 364 401 354 333 363 392 b 490 410 382 403 472 413 b 542 479 529 404 558 443 b 490 507 533 497 510 507 b 379 500 453 507 417 503 b 518 819 399 601 444 742 b 571 858 533 836 550 851 b 592 863 578 861 585 863 b 661 781 635 863 651 814 b 678 601 678 724 679 661 b 356 93 678 360 597 163 b 354 322 356 169 356 246 z "},"Ñ":{"ha":899,"x_min":0,"x_max":0,"o":"m 176 38 l 176 724 b 636 13 335 489 472 242 b 658 1 642 4 650 1 b 819 129 711 1 819 79 l 819 940 b 769 994 819 975 794 994 b 722 943 746 994 722 978 l 722 282 b 253 969 574 517 415 743 b 219 985 246 979 231 985 b 79 850 156 985 79 917 l 79 36 b 126 -15 79 1 103 -15 b 176 38 151 -15 176 3 z m 314 1113 b 389 1150 321 1142 360 1154 b 525 1125 435 1144 479 1131 b 564 1122 538 1124 551 1122 b 593 1125 574 1122 583 1122 b 642 1149 611 1128 628 1136 b 681 1231 660 1165 688 1207 b 631 1269 674 1256 653 1269 b 590 1244 614 1269 599 1263 b 564 1219 586 1229 581 1219 b 533 1222 553 1219 539 1221 b 385 1247 483 1229 435 1243 b 235 1175 329 1253 267 1221 b 231 1094 219 1153 211 1114 b 268 1079 242 1083 256 1079 b 314 1113 289 1079 307 1090 z "},"Ò":{"ha":788,"x_min":0,"x_max":0,"o":"m 489 1099 b 471 1181 515 1125 507 1171 b 296 1249 411 1199 351 1218 b 250 1285 279 1258 269 1279 b 189 1254 224 1292 196 1279 b 199 1206 185 1238 188 1218 b 447 1088 263 1142 361 1111 b 457 1086 450 1086 454 1086 b 489 1099 468 1086 481 1092 z m 700 267 b 708 724 754 408 756 579 b 397 988 658 867 561 988 b 78 664 217 988 121 817 b 65 272 43 539 33 399 b 364 3 104 122 200 3 b 700 267 528 3 647 119 z m 286 297 b 292 593 271 394 275 496 b 419 871 304 674 343 824 b 488 886 440 883 465 890 b 547 850 511 883 532 867 b 624 553 606 778 622 642 b 600 331 625 479 618 403 b 531 174 586 275 567 218 b 414 111 501 140 457 111 b 286 297 329 111 299 231 z "},"Ó":{"ha":788,"x_min":0,"x_max":0,"o":"m 403 1085 b 549 1190 421 1097 531 1178 b 533 1275 579 1214 569 1265 b 493 1271 521 1279 504 1278 b 347 1164 475 1257 365 1176 b 361 1079 317 1142 325 1089 b 403 1085 375 1076 392 1076 z m 700 267 b 708 724 754 408 756 579 b 397 988 658 867 561 988 b 78 664 217 988 121 817 b 65 272 43 539 33 399 b 364 3 104 122 200 3 b 700 267 528 3 647 119 z m 286 297 b 292 593 271 394 275 496 b 419 871 304 674 343 824 b 488 886 440 883 465 890 b 547 850 511 883 532 867 b 624 553 606 778 622 642 b 600 331 625 479 618 403 b 531 174 586 275 567 218 b 414 111 501 140 457 111 b 286 297 329 111 299 231 z "},"Ô":{"ha":788,"x_min":0,"x_max":0,"o":"m 678 1133 b 650 1172 676 1149 664 1164 b 608 1210 643 1176 615 1204 b 507 1285 578 1239 546 1269 b 465 1292 493 1289 479 1292 b 378 1260 433 1292 403 1276 b 275 1189 343 1239 311 1211 b 263 1185 271 1186 267 1186 b 226 1153 246 1181 231 1168 b 257 1090 219 1126 231 1097 b 274 1089 263 1089 268 1089 b 325 1104 292 1089 310 1094 b 425 1175 360 1126 390 1154 b 469 1194 435 1181 457 1194 b 600 1089 497 1189 576 1104 b 628 1081 608 1083 618 1081 b 678 1133 656 1081 681 1103 z m 700 267 b 708 724 754 408 756 579 b 397 988 658 867 561 988 b 78 664 217 988 121 817 b 65 272 43 539 33 399 b 364 3 104 122 200 3 b 700 267 528 3 647 119 z m 286 297 b 292 593 271 394 275 496 b 419 871 304 674 343 824 b 488 886 440 883 465 890 b 547 850 511 883 532 867 b 624 553 606 778 622 642 b 600 331 625 479 618 403 b 531 174 586 275 567 218 b 414 111 501 140 457 111 b 286 297 329 111 299 231 z "},"Õ":{"ha":788,"x_min":0,"x_max":0,"o":"m 322 1096 b 394 1136 335 1111 372 1136 b 422 1124 400 1135 419 1125 b 526 1085 456 1107 490 1092 b 596 1097 550 1082 576 1083 b 647 1183 622 1113 654 1153 b 599 1221 640 1208 619 1221 b 557 1196 582 1221 567 1214 b 544 1181 554 1192 550 1181 b 432 1225 525 1182 450 1218 b 394 1233 419 1231 407 1233 b 324 1215 369 1233 344 1225 b 238 1117 286 1197 229 1158 b 286 1076 242 1092 264 1076 b 322 1096 300 1076 313 1082 z m 700 267 b 708 724 754 408 756 579 b 397 988 658 867 561 988 b 78 664 217 988 121 817 b 65 272 43 539 33 399 b 364 3 104 122 200 3 b 700 267 528 3 647 119 z m 286 297 b 292 593 271 394 275 496 b 419 871 304 674 343 824 b 488 886 440 883 465 890 b 547 850 511 883 532 867 b 624 553 606 778 622 642 b 600 331 625 479 618 403 b 531 174 586 275 567 218 b 414 111 501 140 457 111 b 286 297 329 111 299 231 z "},"Ö":{"ha":788,"x_min":0,"x_max":0,"o":"m 572 1129 b 518 1194 585 1165 556 1200 b 489 1114 481 1188 464 1143 b 525 1097 499 1103 513 1097 b 572 1129 546 1097 565 1108 z m 336 1129 b 289 1186 339 1161 317 1186 b 267 1181 282 1186 274 1185 b 272 1090 228 1163 232 1101 b 288 1088 278 1089 282 1088 b 336 1129 311 1088 333 1104 z m 700 267 b 708 724 754 408 756 579 b 397 988 658 867 561 988 b 78 664 217 988 121 817 b 65 272 43 539 33 399 b 364 3 104 122 200 3 b 700 267 528 3 647 119 z m 286 297 b 292 593 271 394 275 496 b 419 871 304 674 343 824 b 488 886 440 883 465 890 b 547 850 511 883 532 867 b 624 553 606 778 622 642 b 600 331 625 479 618 403 b 531 174 586 275 567 218 b 414 111 501 140 457 111 b 286 297 329 111 299 231 z "},"×":{"ha":596,"x_min":0,"x_max":0,"o":"m 531 299 b 524 328 533 308 531 321 b 389 479 481 381 438 432 b 533 593 436 519 485 557 b 510 679 568 619 553 676 b 479 672 499 681 488 679 b 318 546 422 633 369 592 b 188 663 300 563 203 646 b 165 689 183 665 168 685 b 142 696 158 694 150 696 b 111 689 131 696 119 693 b 46 610 78 675 53 644 b 53 581 44 600 47 588 b 203 442 97 528 151 486 b 71 307 157 399 111 356 b 67 238 54 288 49 256 b 106 221 78 226 92 221 b 142 239 119 221 133 226 b 274 375 157 261 254 357 b 407 226 321 329 364 278 b 431 213 413 219 421 214 b 531 299 478 210 524 251 z "},"Ø":{"ha":792,"x_min":0,"x_max":0,"o":"m 233 -72 b 278 17 249 -42 263 -12 b 364 4 306 8 335 4 b 701 267 528 4 646 117 b 725 665 749 392 756 536 b 651 844 711 729 686 790 b 665 879 656 856 660 867 b 683 904 669 888 679 894 b 643 976 703 936 679 976 b 579 924 613 976 590 949 b 403 988 529 965 467 988 b 79 664 218 988 124 821 b 86 210 39 518 32 351 b 192 61 108 154 143 99 b 144 -32 186 50 150 -21 b 144 -61 140 -40 142 -51 b 192 -97 150 -85 171 -97 b 233 -72 208 -97 225 -89 z m 293 593 b 421 871 306 674 344 824 b 489 886 442 883 467 890 b 547 850 511 883 532 868 b 335 392 481 696 400 546 b 290 285 319 356 304 319 b 293 593 272 386 276 492 z m 340 153 b 463 440 382 249 419 346 b 601 733 507 539 556 635 b 608 361 633 614 633 483 b 413 110 590 264 533 110 b 340 153 382 110 358 129 z "},"Ù":{"ha":825,"x_min":0,"x_max":0,"o":"m 496 1178 b 404 1231 468 1201 436 1215 b 344 1257 396 1233 351 1253 b 324 1265 338 1260 332 1264 b 297 1172 267 1269 246 1197 b 388 1131 326 1157 358 1146 b 439 1099 406 1122 422 1111 b 468 1093 447 1093 458 1092 b 496 1178 511 1096 529 1150 z m 732 190 b 754 467 760 278 756 374 b 744 935 753 524 744 878 b 690 992 744 972 717 992 b 647 946 668 992 647 978 b 642 351 647 872 642 424 b 454 92 642 213 618 92 b 293 336 310 92 293 222 b 276 936 293 536 276 736 b 249 978 276 953 263 969 b 169 996 225 990 196 996 b 74 942 126 996 74 985 b 75 307 74 731 75 519 b 440 -17 75 79 228 -17 b 732 190 585 -17 690 47 z "},"Ú":{"ha":825,"x_min":0,"x_max":0,"o":"m 486 1107 b 597 1188 504 1129 578 1183 b 626 1199 607 1190 619 1192 b 611 1282 656 1224 647 1272 b 594 1283 606 1283 600 1283 b 404 1158 544 1283 425 1193 b 446 1086 383 1121 413 1086 b 486 1107 460 1086 475 1092 z m 732 190 b 754 467 760 278 756 374 b 744 935 753 524 744 878 b 690 992 744 972 717 992 b 647 946 668 992 647 978 b 642 351 647 872 642 424 b 454 92 642 213 618 92 b 293 336 310 92 293 222 b 276 936 293 536 276 736 b 249 978 276 953 263 969 b 169 996 225 990 196 996 b 74 942 126 996 74 985 b 75 307 74 731 75 519 b 440 -17 75 79 228 -17 b 732 190 585 -17 690 47 z "},"Û":{"ha":825,"x_min":0,"x_max":0,"o":"m 653 1131 b 554 1232 624 1167 593 1206 b 489 1251 536 1243 513 1251 b 376 1210 447 1251 408 1233 b 303 1142 360 1199 310 1161 b 357 1078 290 1107 321 1071 b 403 1108 375 1081 389 1097 b 493 1154 422 1125 469 1160 b 579 1068 517 1147 564 1086 b 618 1050 588 1057 604 1050 b 653 1131 657 1050 679 1097 z m 732 190 b 754 467 760 278 756 374 b 744 935 753 524 744 878 b 690 992 744 972 717 992 b 647 946 668 992 647 978 b 642 351 647 872 642 424 b 454 92 642 213 618 92 b 293 336 310 92 293 222 b 276 936 293 536 276 736 b 249 978 276 953 263 969 b 169 996 225 990 196 996 b 74 942 126 996 74 985 b 75 307 74 731 75 519 b 440 -17 75 79 228 -17 b 732 190 585 -17 690 47 z "},"Ü":{"ha":825,"x_min":0,"x_max":0,"o":"m 333 1107 b 363 1133 343 1115 356 1122 b 319 1206 381 1165 357 1206 b 267 1181 307 1206 276 1190 b 297 1094 236 1150 253 1099 b 333 1107 310 1093 324 1097 z m 563 1167 b 515 1199 554 1188 536 1199 b 482 1185 504 1199 492 1194 b 471 1128 468 1171 463 1144 b 517 1097 482 1106 499 1097 b 563 1167 547 1097 576 1126 z m 732 190 b 754 467 760 278 756 374 b 744 935 753 524 744 878 b 690 992 744 972 717 992 b 647 946 668 992 647 978 b 642 351 647 872 642 424 b 454 92 642 213 618 92 b 293 336 310 92 293 222 b 276 936 293 536 276 736 b 249 978 276 953 263 969 b 169 996 225 990 196 996 b 74 942 126 996 74 985 b 75 307 74 731 75 519 b 440 -17 75 79 228 -17 b 732 190 585 -17 690 47 z "},"Ý":{"ha":701,"x_min":0,"x_max":0,"o":"m 489 10 l 489 15 b 481 489 489 174 481 331 b 481 497 481 492 478 494 b 572 646 517 543 546 594 b 671 871 608 719 640 796 b 693 929 674 879 692 921 b 646 992 700 961 675 992 b 621 983 638 992 629 989 b 563 874 601 969 572 896 b 482 665 535 806 511 735 b 440 583 469 638 457 608 b 390 547 429 567 408 540 b 351 600 376 551 358 586 b 215 963 294 715 264 843 b 146 993 208 989 168 993 b 8 933 110 993 21 976 b 11 917 8 928 8 922 b 132 640 47 822 85 729 b 279 453 168 569 214 499 b 275 139 283 349 279 243 b 281 8 274 114 268 29 b 372 -26 294 -18 335 -26 b 489 10 401 -26 476 -17 z m 376 1036 b 486 1140 411 1072 440 1119 b 529 1176 503 1147 524 1158 b 486 1240 538 1208 515 1240 b 392 1194 456 1240 414 1214 b 308 1106 360 1169 335 1136 b 340 1024 282 1074 300 1028 b 376 1036 353 1024 367 1028 z "},"Þ":{"ha":799,"x_min":0,"x_max":0,"o":"m 299 17 l 299 192 b 640 290 417 185 547 217 b 765 478 700 336 746 406 b 765 622 778 524 779 576 b 438 804 726 760 565 804 b 294 789 390 804 342 799 l 294 943 b 197 990 294 983 226 990 b 92 939 165 990 92 979 b 75 211 92 696 72 454 b 85 29 76 150 79 89 b 179 -25 92 -17 139 -25 b 299 17 200 -25 299 -17 z m 296 690 b 367 700 318 697 342 700 b 543 615 432 700 510 675 b 450 356 592 529 531 413 b 299 285 404 324 354 290 b 296 690 297 419 296 556 z "},"ß":{"ha":774,"x_min":0,"x_max":0,"o":"m 274 -325 b 274 -294 278 -315 276 -304 b 240 -124 254 -240 247 -181 b 238 422 221 57 221 242 b 382 800 254 576 278 678 b 506 889 408 832 465 889 b 514 888 508 889 511 888 b 529 774 560 878 550 817 b 422 600 500 713 457 658 b 381 494 403 568 383 533 b 400 415 378 468 386 439 b 556 267 436 354 504 317 b 590 207 572 250 589 229 b 563 150 592 185 576 165 b 497 115 546 133 524 115 b 450 129 481 115 465 121 b 424 136 440 135 432 136 b 392 51 381 136 353 85 b 553 -6 433 14 494 -6 b 625 6 578 -6 603 -1 b 660 368 775 53 761 247 b 536 526 638 393 547 494 b 656 676 553 547 643 654 b 693 853 688 728 703 794 b 511 994 676 951 604 994 b 117 611 310 994 175 781 b 46 178 68 474 54 325 b 51 -322 36 11 28 -157 b 150 -375 58 -368 113 -375 b 274 -325 192 -375 258 -361 z "},"à":{"ha":846,"x_min":0,"x_max":0,"o":"m 544 840 b 443 943 544 874 468 928 b 344 968 422 954 378 968 b 318 964 335 968 325 967 b 310 876 281 947 276 900 b 347 868 321 869 335 865 b 357 871 350 869 356 871 b 464 800 400 865 433 829 b 496 788 474 792 485 788 b 544 840 522 788 547 810 z m 514 274 b 553 78 521 207 519 136 b 711 -4 588 18 646 -4 b 786 4 736 -4 761 0 b 810 85 826 11 847 67 b 782 89 801 89 792 89 b 749 103 769 90 758 96 b 708 263 714 138 708 217 b 738 631 707 386 729 508 b 683 674 739 653 704 668 b 632 682 668 679 650 682 b 539 628 592 682 554 667 b 383 690 494 669 443 690 b 146 574 292 690 201 644 b 32 211 67 475 29 338 b 224 -19 35 93 94 -19 b 514 274 368 -19 468 157 z m 249 144 b 228 182 238 154 232 168 b 221 260 221 207 221 233 b 414 590 226 360 285 590 b 454 575 431 590 442 585 b 499 525 471 561 485 543 b 379 233 474 414 446 326 b 269 138 358 204 306 138 b 249 144 261 138 254 140 z "},"á":{"ha":846,"x_min":0,"x_max":0,"o":"m 406 779 b 529 892 446 818 486 856 b 500 978 569 925 539 978 b 467 965 489 978 478 975 b 343 853 424 931 383 892 b 338 783 322 835 318 803 b 375 768 347 774 361 768 b 406 779 386 768 397 771 z m 514 274 b 553 78 521 207 519 136 b 711 -4 588 18 646 -4 b 786 4 736 -4 761 0 b 810 85 826 11 847 67 b 782 89 801 89 792 89 b 749 103 769 90 758 96 b 708 263 714 138 708 217 b 738 631 707 386 729 508 b 683 674 739 653 704 668 b 632 682 668 679 650 682 b 539 628 592 682 554 667 b 383 690 494 669 443 690 b 146 574 292 690 201 644 b 32 211 67 475 29 338 b 224 -19 35 93 94 -19 b 514 274 368 -19 468 157 z m 249 144 b 228 182 238 154 232 168 b 221 260 221 207 221 233 b 414 590 226 360 285 590 b 454 575 431 590 442 585 b 499 525 471 561 485 543 b 379 233 474 414 446 326 b 269 138 358 204 306 138 b 249 144 261 138 254 140 z "},"â":{"ha":846,"x_min":0,"x_max":0,"o":"m 597 878 b 533 971 589 890 542 960 b 489 1015 519 988 506 1004 b 450 1026 478 1022 464 1026 b 421 1019 440 1026 431 1024 b 313 939 379 1000 346 969 b 267 901 306 933 274 906 b 269 815 232 882 235 832 b 289 811 275 813 282 811 b 318 818 300 811 310 814 b 392 881 331 825 382 872 b 447 924 410 896 428 911 b 519 822 474 892 496 856 b 557 804 528 811 543 804 b 597 878 593 804 619 846 z m 514 274 b 553 78 521 207 519 136 b 711 -4 588 18 646 -4 b 786 4 736 -4 761 0 b 810 85 826 11 847 67 b 782 89 801 89 792 89 b 749 103 769 90 758 96 b 708 263 714 138 708 217 b 738 631 707 386 729 508 b 683 674 739 653 704 668 b 632 682 668 679 650 682 b 539 628 592 682 554 667 b 383 690 494 669 443 690 b 146 574 292 690 201 644 b 32 211 67 475 29 338 b 224 -19 35 93 94 -19 b 514 274 368 -19 468 157 z m 249 144 b 228 182 238 154 232 168 b 221 260 221 207 221 233 b 414 590 226 360 285 590 b 454 575 431 590 442 585 b 499 525 471 561 485 543 b 379 233 474 414 446 326 b 269 138 358 204 306 138 b 249 144 261 138 254 140 z "},"ã":{"ha":846,"x_min":0,"x_max":0,"o":"m 339 804 b 343 813 340 807 340 810 b 369 833 351 819 360 828 b 447 814 386 840 431 819 b 521 799 472 806 496 797 b 624 879 574 799 603 835 b 608 933 632 897 624 924 b 576 944 599 940 588 944 b 540 926 563 944 549 939 b 521 897 533 917 529 906 b 513 896 519 894 515 896 b 411 928 499 899 425 925 b 379 932 401 931 389 932 b 247 844 326 932 268 890 b 249 803 242 832 242 815 b 293 774 257 783 275 774 b 339 804 311 774 329 783 z m 514 274 b 553 78 521 207 519 136 b 711 -4 588 18 646 -4 b 786 4 736 -4 761 0 b 810 85 826 11 847 67 b 782 89 801 89 792 89 b 749 103 769 90 758 96 b 708 263 714 138 708 217 b 738 631 707 386 729 508 b 683 674 739 653 704 668 b 632 682 668 679 650 682 b 539 628 592 682 554 667 b 383 690 494 669 443 690 b 146 574 292 690 201 644 b 32 211 67 475 29 338 b 224 -19 35 93 94 -19 b 514 274 368 -19 468 157 z m 249 144 b 228 182 238 154 232 168 b 221 260 221 207 221 233 b 414 590 226 360 285 590 b 454 575 431 590 442 585 b 499 525 471 561 485 543 b 379 233 474 414 446 326 b 269 138 358 204 306 138 b 249 144 261 138 254 140 z "},"ä":{"ha":846,"x_min":0,"x_max":0,"o":"m 385 842 b 335 901 390 874 365 901 b 318 899 329 901 324 901 b 306 813 281 886 275 838 b 336 801 315 804 325 801 b 385 842 358 801 381 817 z m 606 806 b 597 894 642 826 638 883 b 554 897 589 896 563 900 b 557 801 501 883 503 810 b 606 806 574 800 592 797 z m 514 274 b 553 78 521 207 519 136 b 711 -4 588 18 646 -4 b 786 4 736 -4 761 0 b 810 85 826 11 847 67 b 782 89 801 89 792 89 b 749 103 769 90 758 96 b 708 263 714 138 708 217 b 738 631 707 386 729 508 b 683 674 739 653 704 668 b 632 682 668 679 650 682 b 539 628 592 682 554 667 b 383 690 494 669 443 690 b 146 574 292 690 201 644 b 32 211 67 475 29 338 b 224 -19 35 93 94 -19 b 514 274 368 -19 468 157 z m 249 144 b 228 182 238 154 232 168 b 221 260 221 207 221 233 b 414 590 226 360 285 590 b 454 575 431 590 442 585 b 499 525 471 561 485 543 b 379 233 474 414 446 326 b 269 138 358 204 306 138 b 249 144 261 138 254 140 z "},"å":{"ha":847,"x_min":0,"x_max":0,"o":"m 515 274 b 554 78 522 207 521 136 b 713 -4 589 18 647 -4 b 788 4 738 -4 763 0 b 811 85 828 11 849 67 b 783 89 803 89 793 89 b 750 103 771 90 760 96 b 710 263 715 138 710 217 b 739 631 708 386 731 508 b 685 674 740 653 706 668 b 633 682 669 679 651 682 b 540 628 593 682 556 667 b 468 675 519 649 494 664 b 542 710 494 678 522 690 b 574 774 557 728 567 751 b 579 881 583 808 586 846 b 479 999 565 938 531 972 b 454 1006 471 1003 463 1006 b 415 985 439 1006 424 999 b 347 947 389 981 363 968 b 296 839 322 917 301 879 b 311 763 293 813 299 785 b 397 690 331 729 364 706 b 315 682 369 692 342 689 b 147 574 250 665 189 626 b 33 211 68 475 31 338 b 225 -19 36 93 96 -19 b 515 274 369 -19 469 157 z m 447 775 b 393 817 431 781 397 800 b 424 889 388 836 411 874 b 457 899 436 890 447 892 b 479 874 465 892 475 883 b 476 788 492 847 486 814 b 467 772 475 783 469 774 b 447 775 463 771 451 774 z m 250 144 b 229 182 239 154 233 168 b 222 260 222 207 222 233 b 415 590 228 360 286 590 b 456 575 432 590 443 585 b 500 525 472 561 486 543 b 381 233 475 414 447 326 b 271 138 360 204 307 138 b 250 144 263 138 256 140 z "},"æ":{"ha":1021,"x_min":0,"x_max":0,"o":"m 876 17 b 983 106 901 29 972 79 b 949 169 996 133 978 164 b 903 158 933 171 917 165 b 799 96 867 139 838 106 b 753 100 785 93 767 94 b 683 264 700 124 688 214 b 872 347 751 274 821 301 b 974 572 933 403 974 490 b 935 706 975 619 963 668 b 790 778 900 754 849 778 b 539 632 688 778 593 718 b 374 683 490 667 433 683 b 135 567 282 683 190 642 b 88 50 38 435 -14 179 b 225 -12 121 7 171 -12 b 476 200 342 -12 428 106 b 750 -14 511 69 628 -14 b 876 17 793 -14 835 -4 z m 761 633 b 839 678 776 658 811 688 b 869 633 856 671 865 651 b 815 429 888 565 865 479 b 685 363 781 394 732 374 b 761 633 692 435 718 572 z m 225 201 b 231 343 217 247 222 297 b 372 586 247 422 290 550 b 421 596 388 593 404 597 b 493 539 451 596 478 561 b 465 408 479 497 469 453 b 458 389 465 406 460 392 b 379 240 439 336 413 286 b 269 144 358 211 306 144 b 225 201 244 144 229 176 z "},"ç":{"ha":592,"x_min":0,"x_max":0,"o":"m 315 -365 b 410 -292 351 -349 388 -325 b 357 -129 444 -236 411 -167 b 261 -104 329 -111 294 -104 b 286 -65 269 -92 278 -78 b 308 -44 288 -64 308 -44 b 531 39 388 -49 472 -14 b 560 83 543 51 556 65 b 500 138 569 119 535 149 b 475 124 490 136 482 131 b 356 65 443 96 400 65 b 292 101 328 65 308 78 b 264 181 276 125 268 153 b 258 332 254 231 254 281 b 328 597 265 411 285 528 b 399 649 346 622 372 649 b 442 608 424 649 435 629 b 449 525 449 582 446 553 b 499 478 451 497 475 478 b 546 521 525 478 540 497 b 411 743 568 621 511 722 b 365 749 396 747 381 749 b 61 488 210 749 103 626 b 44 203 33 396 29 296 b 201 -17 61 107 114 28 b 136 -153 185 -43 133 -121 b 157 -196 138 -168 144 -185 b 204 -208 169 -206 188 -208 b 271 -201 226 -208 250 -201 b 326 -233 294 -201 315 -212 b 304 -261 332 -244 314 -254 b 151 -315 258 -292 203 -303 b 106 -336 135 -318 115 -322 b 142 -415 83 -369 106 -415 b 315 -365 175 -415 283 -379 z "},"è":{"ha":596,"x_min":0,"x_max":0,"o":"m 433 936 b 415 954 429 943 422 950 b 275 1026 394 964 293 1013 b 253 1050 265 1032 261 1043 b 222 1060 243 1057 233 1060 b 174 1011 197 1060 174 1040 b 265 919 174 969 235 936 b 375 865 301 900 338 883 b 393 861 381 863 388 861 b 433 936 428 861 456 904 z m 451 -12 b 558 76 476 0 547 50 b 524 140 571 104 553 135 b 478 129 508 142 492 136 b 374 67 442 110 413 76 b 328 71 360 64 342 64 b 258 235 275 94 263 185 b 447 318 326 244 396 272 b 549 543 508 374 549 461 b 510 676 550 590 538 639 b 432 738 490 704 463 725 b 368 747 413 744 390 747 b 88 556 239 747 140 668 b 49 189 35 444 25 310 b 325 -43 75 49 196 -43 b 451 -12 368 -43 410 -33 z m 336 604 b 414 649 351 629 386 658 b 444 604 431 642 440 622 b 390 400 463 536 440 450 b 260 333 356 365 307 344 b 336 604 267 411 292 536 z "},"é":{"ha":597,"x_min":0,"x_max":0,"o":"m 343 851 b 425 928 369 878 396 906 b 454 940 435 933 446 935 b 451 1026 489 960 486 1010 b 421 1031 442 1031 431 1033 b 275 919 363 1014 317 964 b 275 856 258 903 258 872 b 314 839 286 844 300 839 b 343 851 325 839 335 843 z m 451 -12 b 558 76 476 0 547 50 b 524 140 571 104 553 135 b 478 129 508 142 492 136 b 374 67 442 110 413 76 b 328 71 360 64 342 64 b 258 235 275 94 263 185 b 447 318 326 244 396 272 b 549 543 508 374 549 461 b 510 676 550 590 538 639 b 432 738 490 704 463 725 b 368 747 413 744 390 747 b 88 556 239 747 140 668 b 49 189 35 444 25 310 b 325 -43 75 49 196 -43 b 451 -12 368 -43 410 -33 z m 336 604 b 414 649 351 629 386 658 b 444 604 431 642 440 622 b 390 400 463 536 440 450 b 260 333 356 365 307 344 b 336 604 267 411 292 536 z "},"ê":{"ha":603,"x_min":0,"x_max":0,"o":"m 524 922 b 417 1001 489 950 453 976 b 367 1024 401 1011 385 1018 b 311 1018 349 1028 329 1025 b 239 964 285 1006 261 985 b 229 960 238 963 231 960 b 214 878 201 940 190 901 b 254 861 224 868 240 861 b 278 868 264 861 271 864 b 347 928 303 886 321 913 b 357 924 350 929 356 925 b 468 843 397 900 431 869 b 497 836 476 838 488 835 b 524 922 540 840 558 896 z m 451 -12 b 558 76 476 0 547 50 b 524 140 571 104 553 135 b 478 129 508 142 492 136 b 374 67 442 110 413 76 b 328 71 360 64 342 64 b 258 235 275 94 263 185 b 447 318 326 244 396 272 b 549 543 508 374 549 461 b 510 676 550 590 538 639 b 432 738 490 704 463 725 b 368 747 413 744 390 747 b 88 556 239 747 140 668 b 49 189 35 444 25 310 b 325 -43 75 49 196 -43 b 451 -12 368 -43 410 -33 z m 336 604 b 414 649 351 629 386 658 b 444 604 431 642 440 622 b 390 400 463 536 440 450 b 260 333 356 365 307 344 b 336 604 267 411 292 536 z "},"ë":{"ha":597,"x_min":0,"x_max":0,"o":"m 464 840 b 472 929 500 857 503 904 b 429 939 460 939 444 943 b 406 851 389 928 376 881 b 446 838 414 843 432 838 b 464 840 453 838 458 839 z m 306 882 b 256 940 311 915 285 940 b 228 932 246 940 236 938 b 228 849 194 914 194 867 b 254 842 236 843 246 842 b 306 882 278 842 300 857 z m 451 -12 b 558 76 476 0 547 50 b 524 140 571 104 553 135 b 478 129 508 142 492 136 b 374 67 442 110 413 76 b 328 71 360 64 342 64 b 258 235 275 94 263 185 b 447 318 326 244 396 272 b 549 543 508 374 549 461 b 510 676 550 590 538 639 b 432 738 490 704 463 725 b 368 747 413 744 390 747 b 88 556 239 747 140 668 b 49 189 35 444 25 310 b 325 -43 75 49 196 -43 b 451 -12 368 -43 410 -33 z m 336 604 b 414 649 351 629 386 658 b 444 604 431 642 440 622 b 390 400 463 536 440 450 b 260 333 356 365 307 344 b 336 604 267 411 292 536 z "},"ì":{"ha":408,"x_min":0,"x_max":0,"o":"m 261 825 b 257 914 301 843 299 901 b 124 956 240 919 140 950 b 118 958 122 956 119 958 b 89 967 110 964 99 965 b 39 897 51 969 24 932 b 60 875 43 888 51 879 b 232 821 83 864 208 828 b 261 825 242 818 253 821 z m 376 -8 b 376 61 399 13 401 47 b 307 92 354 74 322 72 b 274 181 286 115 278 149 b 269 332 267 231 267 282 b 301 635 275 433 294 533 b 214 699 301 685 257 699 b 103 635 168 699 118 682 b 67 394 79 557 68 475 b 94 178 65 322 72 247 b 336 -22 131 60 210 -18 b 376 -8 350 -22 367 -17 z "},"í":{"ha":393,"x_min":0,"x_max":0,"o":"m 167 801 b 319 924 188 815 300 907 b 289 1011 360 958 329 1011 b 257 999 279 1011 268 1007 b 110 879 208 958 158 919 b 136 794 75 853 93 797 b 167 801 146 793 158 794 z m 356 -8 b 356 61 378 13 381 47 b 286 92 333 74 301 72 b 253 181 265 115 257 149 b 249 332 244 231 246 282 b 281 635 254 433 274 533 b 193 699 281 685 236 699 b 82 635 147 699 97 682 b 46 394 58 557 47 475 b 74 178 44 322 51 247 b 315 -22 110 60 189 -18 b 356 -8 329 -22 346 -17 z "},"î":{"ha":433,"x_min":0,"x_max":0,"o":"m 122 803 b 217 894 139 833 188 876 b 322 806 233 885 308 819 b 356 794 332 799 343 794 b 388 807 368 794 379 799 b 392 875 407 825 410 856 b 268 978 375 892 288 965 b 215 993 253 988 233 993 b 33 840 158 993 43 883 b 79 776 22 803 50 776 b 122 803 94 776 111 785 z m 392 -8 b 392 61 414 13 417 47 b 322 92 369 74 339 72 b 289 181 301 115 293 149 b 285 332 282 231 282 282 b 317 635 290 433 310 533 b 229 699 317 685 272 699 b 118 635 183 699 133 682 b 82 394 94 557 83 475 b 110 178 81 322 88 247 b 351 -22 146 60 225 -18 b 392 -8 365 -22 382 -17 z "},"ï":{"ha":403,"x_min":0,"x_max":0,"o":"m 368 840 b 329 903 376 869 360 900 b 317 904 325 903 321 904 b 288 897 306 904 296 901 b 275 822 261 882 254 844 b 319 806 286 811 303 806 b 368 840 340 806 364 819 z m 140 858 b 89 901 133 883 111 901 b 64 894 81 901 72 899 b 57 814 33 878 31 832 b 94 800 68 806 81 799 b 140 858 124 803 147 829 z m 365 -8 b 364 61 386 13 390 47 b 294 92 343 74 311 72 b 263 181 275 115 267 149 b 258 332 254 231 256 282 b 289 635 264 433 282 533 b 282 668 290 646 288 658 b 203 699 265 692 231 699 b 122 676 175 699 144 693 b 92 635 107 667 96 651 b 56 394 68 557 57 475 b 82 178 54 322 61 247 b 324 -22 118 61 199 -18 b 365 -8 339 -22 354 -17 z "},"ð":{"ha":663,"x_min":0,"x_max":0,"o":"m 603 208 b 628 354 621 254 628 306 b 389 840 625 539 518 715 b 463 867 413 850 438 858 b 493 922 485 874 499 900 b 447 961 488 943 469 961 b 308 911 421 961 335 924 b 154 1013 260 949 208 985 b 106 1025 139 1021 122 1029 b 96 933 58 1017 53 956 b 219 857 139 911 181 885 b 136 768 197 840 139 797 b 186 711 133 736 160 711 b 217 725 197 711 207 715 b 299 793 242 750 268 774 b 422 654 344 751 386 704 b 318 668 389 664 354 668 b 63 474 185 668 97 603 b 57 219 39 392 38 301 b 311 -6 88 92 174 -6 b 603 208 438 -6 558 93 z m 258 215 b 286 465 242 297 254 388 b 397 554 306 511 350 554 b 522 414 464 554 511 472 b 481 175 539 335 525 243 b 357 97 451 131 403 97 b 258 215 292 97 268 161 z "},"ñ":{"ha":824,"x_min":0,"x_max":0,"o":"m 307 840 b 354 875 313 851 342 871 b 461 817 390 854 422 826 b 483 814 468 814 475 814 b 531 826 500 814 517 818 b 597 906 553 839 593 882 b 549 963 603 938 576 963 b 517 950 538 963 526 958 b 492 918 507 940 500 929 b 482 911 489 915 485 910 b 413 954 456 921 435 939 b 360 972 394 965 381 972 b 244 917 317 972 274 946 b 217 881 233 907 222 894 b 261 808 200 839 229 808 b 307 840 278 808 296 818 z m 242 8 b 281 32 257 13 274 18 b 282 92 285 40 282 82 b 454 576 289 178 329 576 b 478 568 463 576 471 574 b 521 406 508 544 518 444 b 572 69 531 293 531 175 b 707 3 589 18 660 3 b 765 10 726 3 747 4 b 806 81 797 18 815 50 b 772 103 800 97 789 103 b 703 185 726 110 711 143 b 701 271 700 214 700 243 b 707 492 704 344 713 418 b 599 693 701 568 675 658 b 526 710 578 704 551 710 b 329 590 451 710 372 647 b 275 493 307 561 290 528 b 274 642 275 543 274 593 b 174 700 274 683 207 700 b 49 632 129 700 61 682 b 49 551 46 621 49 564 b 60 194 50 432 56 314 b 74 29 61 165 60 56 b 167 -3 90 1 136 -3 b 242 8 192 -3 218 0 z "},"ò":{"ha":646,"x_min":0,"x_max":0,"o":"m 415 815 b 383 851 411 831 399 847 b 289 882 351 861 319 868 b 263 893 281 886 272 892 b 222 881 249 894 232 890 b 232 801 199 857 201 817 b 369 757 257 789 343 757 b 415 815 399 757 424 786 z m 614 306 b 571 524 621 379 604 457 b 311 668 519 628 425 668 b 65 513 196 668 107 622 b 35 300 38 446 31 371 b 297 -6 46 143 125 -6 b 614 306 467 -6 601 143 z m 325 99 b 242 272 268 115 243 213 b 275 464 239 338 251 404 b 386 554 296 514 339 554 b 507 435 449 554 492 489 b 506 257 524 378 522 314 b 431 131 493 210 468 163 b 325 99 403 107 361 90 z "},"ó":{"ha":646,"x_min":0,"x_max":0,"o":"m 332 788 b 425 869 363 815 393 843 b 438 874 426 871 435 872 b 468 911 456 882 463 892 b 419 975 475 947 450 975 b 393 968 411 975 401 974 b 269 863 372 957 288 878 b 288 776 239 836 249 788 b 332 788 303 774 321 778 z m 614 306 b 571 524 621 379 604 457 b 311 668 519 628 425 668 b 65 513 196 668 107 622 b 35 300 38 446 31 371 b 297 -6 46 143 125 -6 b 614 306 467 -6 601 143 z m 325 99 b 242 272 268 115 243 213 b 275 464 239 338 251 404 b 386 554 296 514 339 554 b 507 435 449 554 492 489 b 506 257 524 378 522 314 b 431 131 493 210 468 163 b 325 99 403 107 361 90 z "},"ô":{"ha":647,"x_min":0,"x_max":0,"o":"m 274 771 b 336 854 278 789 324 840 b 435 751 351 839 417 763 b 458 744 443 747 451 744 b 508 790 483 744 506 764 b 496 826 508 803 504 817 b 368 954 475 846 393 940 b 333 963 358 960 344 963 b 269 925 307 963 285 944 b 175 796 249 903 181 826 b 226 738 169 764 197 738 b 274 771 247 738 267 751 z m 614 306 b 571 524 621 379 604 457 b 311 668 519 628 425 668 b 65 513 196 668 107 622 b 35 300 38 446 31 371 b 297 -6 46 143 125 -6 b 614 306 467 -6 601 143 z m 325 99 b 242 272 268 115 243 213 b 275 464 239 338 251 404 b 386 554 296 514 339 554 b 507 435 449 554 492 489 b 506 257 524 378 522 314 b 431 131 493 210 468 163 b 325 99 403 107 361 90 z "},"õ":{"ha":649,"x_min":0,"x_max":0,"o":"m 256 825 b 278 844 263 833 269 840 b 301 840 283 847 296 842 b 388 801 329 826 357 808 b 453 818 411 797 435 803 b 490 875 471 832 482 853 b 443 939 501 908 475 939 b 396 901 419 939 404 922 b 306 940 367 915 338 932 b 283 943 299 942 290 943 b 242 935 268 943 254 940 b 157 828 204 918 154 868 b 208 774 160 799 176 774 b 256 825 233 774 258 794 z m 615 306 b 572 524 622 379 606 457 b 313 668 521 628 426 668 b 67 513 197 668 108 622 b 36 300 39 446 32 371 b 299 -6 47 143 126 -6 b 615 306 468 -6 603 143 z m 326 99 b 243 272 269 115 244 213 b 276 464 240 338 253 404 b 388 554 297 514 340 554 b 508 435 450 554 493 489 b 507 257 525 378 524 314 b 432 131 494 210 469 163 b 326 99 404 107 363 90 z "},"ö":{"ha":647,"x_min":0,"x_max":0,"o":"m 261 819 b 224 908 296 854 272 913 b 199 818 181 904 164 843 b 231 808 208 813 219 808 b 261 819 243 808 254 813 z m 503 860 b 479 899 501 875 492 890 b 450 906 471 903 461 906 b 413 893 436 906 421 901 b 429 811 388 867 394 824 b 450 807 436 808 443 807 b 503 860 479 807 506 829 z m 614 306 b 571 524 621 379 604 457 b 311 668 519 628 425 668 b 65 513 196 668 107 622 b 35 300 38 446 31 371 b 297 -6 46 143 125 -6 b 614 306 467 -6 601 143 z m 325 99 b 242 272 268 115 243 213 b 275 464 239 338 251 404 b 386 554 296 514 339 554 b 507 435 449 554 492 489 b 506 257 524 378 522 314 b 431 131 493 210 468 163 b 325 99 403 107 361 90 z "},"÷":{"ha":665,"x_min":0,"x_max":0,"o":"m 386 560 b 358 650 426 589 408 653 b 314 632 343 650 324 644 b 354 553 290 597 313 553 b 386 560 365 553 376 554 z m 608 336 b 615 463 639 367 639 428 b 590 479 610 471 600 478 b 447 493 543 485 496 490 b 247 494 381 497 314 497 b 117 490 231 493 133 489 b 82 493 111 490 86 493 b 43 457 64 492 50 474 b 50 354 28 424 31 383 b 75 339 56 346 65 339 b 144 335 99 336 121 335 b 267 339 185 335 226 338 b 422 339 318 342 371 342 b 575 325 474 338 524 331 b 608 336 589 322 599 326 z m 374 147 b 364 235 407 171 403 224 b 346 238 358 236 351 238 b 293 204 322 238 300 226 b 332 140 286 175 303 143 b 344 140 336 140 340 140 b 374 147 356 140 365 142 z "},"ø":{"ha":679,"x_min":0,"x_max":0,"o":"m 147 -125 b 222 6 154 -104 211 -14 b 297 -6 246 -1 271 -6 b 614 289 458 -6 594 131 b 574 521 624 367 608 450 b 646 621 583 533 638 608 b 653 649 651 628 653 639 b 603 693 650 675 626 693 b 572 682 593 693 582 690 b 514 603 561 672 522 614 b 310 668 461 647 379 668 b 40 413 143 668 64 571 b 53 199 31 342 33 268 b 139 54 68 146 97 93 b 51 -114 119 24 51 -78 b 100 -162 51 -143 75 -162 b 147 -125 125 -162 138 -147 z m 339 540 b 388 556 354 550 371 556 b 457 525 414 556 438 542 b 249 221 385 425 317 322 b 339 540 231 318 253 490 z m 335 97 b 296 117 321 100 307 107 b 510 432 367 222 436 328 b 408 114 539 328 503 167 b 335 97 386 101 360 94 z "},"ù":{"ha":793,"x_min":0,"x_max":0,"o":"m 481 864 b 457 897 478 878 469 892 b 329 956 439 906 346 946 b 283 993 321 978 308 993 b 233 953 258 993 236 978 b 265 882 231 926 246 899 b 433 806 281 869 411 806 b 481 864 463 806 489 833 z m 761 10 b 760 79 782 29 786 64 b 690 108 738 92 707 89 b 658 196 671 133 663 165 b 653 325 651 239 651 282 b 675 558 656 403 665 481 b 685 669 676 576 688 653 b 597 717 675 706 629 717 b 490 663 558 717 507 701 b 475 606 488 654 476 614 b 450 401 460 539 451 469 b 432 311 450 388 436 324 b 375 174 419 263 404 214 b 307 131 360 154 332 131 b 256 217 272 131 260 190 b 249 383 247 272 247 328 b 264 642 250 469 256 556 b 221 689 265 663 240 682 b 158 700 203 696 181 700 b 53 626 111 700 53 682 b 50 269 47 508 42 389 b 229 1 56 150 81 1 b 476 201 344 1 432 106 b 719 -4 514 81 589 0 b 761 10 735 -4 750 0 z "},"ú":{"ha":793,"x_min":0,"x_max":0,"o":"m 342 801 b 506 975 368 828 488 943 b 467 1051 531 1017 500 1051 b 422 1025 451 1051 435 1043 b 272 869 406 997 296 893 b 274 806 257 854 257 822 b 311 790 283 796 297 790 b 342 801 322 790 333 793 z m 761 10 b 760 79 782 29 786 64 b 690 108 738 92 707 89 b 658 196 671 133 663 165 b 653 325 651 239 651 282 b 675 558 656 403 665 481 b 685 669 676 576 688 653 b 597 717 675 706 629 717 b 490 663 558 717 507 701 b 475 606 488 654 476 614 b 450 401 460 539 451 469 b 432 311 450 388 436 324 b 375 174 419 263 404 214 b 307 131 360 154 332 131 b 256 217 272 131 260 190 b 249 383 247 272 247 328 b 264 642 250 469 256 556 b 221 689 265 663 240 682 b 158 700 203 696 181 700 b 53 626 111 700 53 682 b 50 269 47 508 42 389 b 229 1 56 150 81 1 b 476 201 344 1 432 106 b 719 -4 514 81 589 0 b 761 10 735 -4 750 0 z "},"û":{"ha":794,"x_min":0,"x_max":0,"o":"m 251 779 b 419 928 275 801 392 911 b 519 832 456 899 488 865 b 550 819 528 824 539 819 b 599 853 571 819 592 832 b 588 900 603 869 600 889 b 513 976 563 926 538 951 b 449 1024 493 994 474 1013 b 422 1029 442 1026 432 1029 b 333 986 390 1029 358 1004 b 182 844 310 965 200 871 b 217 767 158 813 178 769 b 251 779 229 765 243 769 z m 763 10 b 761 79 783 29 788 64 b 692 108 739 92 708 89 b 660 196 672 133 664 165 b 654 325 653 239 653 282 b 676 558 657 403 667 481 b 686 669 678 576 689 653 b 599 717 676 706 631 717 b 492 663 560 717 508 701 b 476 606 489 654 478 614 b 451 401 461 539 453 469 b 433 311 451 388 438 324 b 376 174 421 263 406 214 b 308 131 361 154 333 131 b 257 217 274 131 261 190 b 250 383 249 272 249 328 b 265 642 251 469 257 556 b 222 689 267 663 242 682 b 160 700 204 696 182 700 b 54 626 113 700 54 682 b 51 269 49 508 43 389 b 231 1 57 150 82 1 b 478 201 346 1 433 106 b 721 -4 515 81 590 0 b 763 10 736 -4 751 0 z "},"ü":{"ha":793,"x_min":0,"x_max":0,"o":"m 488 803 b 465 896 525 829 511 888 b 457 897 463 896 460 897 b 415 822 419 897 393 854 b 464 796 426 806 446 796 b 488 803 472 796 481 797 z m 271 799 b 285 888 314 810 322 865 b 260 894 276 892 268 894 b 210 854 236 894 214 878 b 271 799 204 818 236 789 z m 761 10 b 760 79 782 29 786 64 b 690 108 738 92 707 89 b 658 196 671 133 663 165 b 653 325 651 239 651 282 b 675 558 656 403 665 481 b 685 669 676 576 688 653 b 597 717 675 706 629 717 b 490 663 558 717 507 701 b 475 606 488 654 476 614 b 450 401 460 539 451 469 b 432 311 450 388 436 324 b 375 174 419 263 404 214 b 307 131 360 154 332 131 b 256 217 272 131 260 190 b 249 383 247 272 247 328 b 264 642 250 469 256 556 b 221 689 265 663 240 682 b 158 700 203 696 181 700 b 53 626 111 700 53 682 b 50 269 47 508 42 389 b 229 1 56 150 81 1 b 476 201 344 1 432 106 b 719 -4 514 81 589 0 b 761 10 735 -4 750 0 z "},"ý":{"ha":719,"x_min":0,"x_max":0,"o":"m 383 856 b 496 965 418 894 454 933 b 528 999 508 975 522 985 b 482 1065 540 1032 513 1065 b 457 1057 474 1065 465 1063 b 308 918 401 1018 354 968 b 297 882 300 908 296 894 b 344 838 299 854 321 838 b 383 856 357 838 372 843 z m 658 151 b 668 657 674 319 669 489 b 654 693 668 669 663 683 b 593 713 639 708 614 713 b 496 681 558 713 522 701 b 469 647 488 674 471 657 b 468 542 469 633 468 556 b 375 174 458 439 438 260 b 307 131 360 154 332 131 b 256 217 272 131 260 190 b 249 383 247 272 247 328 b 264 642 250 469 256 556 b 221 689 265 663 240 682 b 158 700 203 696 181 700 b 53 626 111 700 53 682 b 50 269 47 508 42 389 b 229 1 56 150 81 1 b 471 190 339 1 428 97 b 392 -174 467 67 451 -64 b 257 -285 361 -226 311 -285 b 168 -218 218 -285 183 -253 b 133 -151 163 -207 142 -160 b 107 -140 126 -144 117 -140 b 56 -204 72 -136 47 -169 b 296 -385 93 -321 176 -385 b 658 151 579 -385 639 -71 z "},"þ":{"ha":786,"x_min":0,"x_max":0,"o":"m 293 -331 b 290 108 293 -183 292 -37 b 449 83 340 93 396 83 b 756 357 607 83 735 200 b 718 549 764 421 751 493 b 506 678 672 625 596 678 b 389 636 463 678 425 664 b 288 544 353 608 319 576 b 286 943 288 678 286 811 b 281 965 286 951 285 958 b 190 992 264 985 225 992 b 85 942 158 992 85 982 b 71 -161 85 574 61 206 b 79 -321 71 -215 74 -268 b 88 -344 79 -329 83 -337 b 174 -371 104 -364 139 -371 b 293 -331 194 -371 293 -362 z m 290 215 b 289 396 290 276 289 336 b 346 460 308 417 326 439 b 436 556 360 478 415 546 b 457 560 442 558 449 560 b 508 542 475 560 494 551 b 571 335 569 497 597 404 b 374 196 546 265 449 196 b 290 215 344 196 315 204 z "},"ÿ":{"ha":722,"x_min":0,"x_max":0,"o":"m 583 856 b 574 943 619 876 614 932 b 532 949 560 947 546 951 b 501 874 497 943 481 903 b 554 849 511 858 533 849 b 583 856 565 849 575 851 z m 315 851 b 346 907 336 860 351 885 b 300 946 340 929 321 946 b 232 910 278 946 243 929 b 275 838 214 878 238 838 b 315 851 289 838 301 846 z m 658 151 b 668 657 674 319 669 489 b 654 693 668 669 663 683 b 593 713 639 708 614 713 b 496 681 558 713 522 701 b 469 647 488 674 471 657 b 468 542 469 633 468 556 b 375 174 458 439 438 260 b 307 131 360 154 332 131 b 256 217 272 131 260 190 b 249 383 247 272 247 328 b 264 642 250 469 256 556 b 221 689 265 663 240 682 b 158 700 203 696 181 700 b 53 626 111 700 53 682 b 50 269 47 508 42 389 b 229 1 56 150 81 1 b 471 190 339 1 428 97 b 392 -174 467 67 451 -64 b 257 -285 361 -226 311 -285 b 168 -218 218 -285 183 -253 b 133 -151 163 -207 142 -160 b 107 -140 126 -144 117 -140 b 56 -204 72 -136 47 -169 b 296 -385 93 -321 176 -385 b 658 151 579 -385 639 -71 z "},"Ł":{"ha":685,"x_min":0,"x_max":0,"o":"m 636 -14 b 643 83 701 -14 708 76 b 325 78 600 88 368 79 l 325 440 b 449 529 363 474 406 503 b 464 554 457 535 463 544 b 417 615 474 586 447 615 b 392 608 408 615 400 614 b 326 564 369 594 349 579 b 329 871 328 667 329 768 b 297 988 329 906 329 965 b 219 1006 282 1000 250 1006 b 115 953 183 1006 115 1001 b 113 381 97 763 106 571 b 81 354 108 376 86 357 b 68 351 79 354 69 351 b 57 265 31 338 25 289 b 85 258 65 260 74 258 b 118 265 96 258 108 261 b 122 50 121 193 122 121 b 346 -19 122 -19 301 -19 b 636 -14 443 -21 539 -14 z "},"ł":{"ha":536,"x_min":0,"x_max":0,"o":"m 339 19 b 336 406 339 149 338 276 b 483 493 385 435 435 464 b 461 585 532 521 504 585 b 435 578 453 585 444 583 b 336 518 401 558 368 539 b 335 611 336 550 335 581 b 417 704 350 622 406 689 b 460 946 465 768 510 883 b 338 994 433 978 385 994 b 126 682 179 994 142 806 b 111 372 113 579 111 475 b 64 346 104 367 72 347 b 38 263 24 338 8 290 b 72 249 46 253 60 247 b 113 260 86 250 100 254 b 117 154 114 225 115 189 b 129 10 117 128 117 33 b 221 -22 144 -18 192 -22 b 339 19 244 -22 339 -14 z m 335 851 b 351 913 336 865 340 904 b 382 913 358 918 375 917 b 401 822 414 900 411 854 b 332 721 389 783 364 746 b 335 851 331 764 331 807 z "},"Œ":{"ha":1258,"x_min":0,"x_max":0,"o":"m 843 -21 b 1193 11 896 -18 1142 -6 b 1197 99 1235 24 1238 79 b 1157 101 1186 104 1171 104 b 879 82 1065 86 972 89 b 878 461 879 208 878 335 b 1069 460 907 463 1040 467 b 1110 544 1121 449 1154 515 b 989 563 1089 558 1039 563 b 876 558 944 563 899 560 b 875 908 876 675 875 792 b 1172 901 974 907 1074 900 b 1218 913 1188 901 1206 903 b 1200 999 1251 938 1242 992 b 1186 1000 1196 1000 1190 1000 b 917 1007 1097 1000 1006 1007 b 676 956 858 1007 703 1006 b 672 938 674 950 672 943 b 671 819 672 897 672 858 b 397 997 614 925 521 997 b 81 682 219 997 125 833 b 67 281 43 553 32 410 b 364 14 104 132 201 14 b 656 185 489 14 589 81 b 665 31 657 133 660 82 b 794 -22 671 -21 754 -22 b 843 -21 811 -22 826 -21 z m 286 307 b 292 603 271 404 275 506 b 419 882 304 689 342 829 b 478 897 438 892 458 897 b 624 569 594 897 622 654 b 603 354 625 497 619 424 b 540 197 590 299 572 243 b 415 121 511 156 463 121 b 286 307 331 121 299 240 z "},"œ":{"ha":1085,"x_min":0,"x_max":0,"o":"m 939 14 b 1047 103 965 26 1035 76 b 1011 167 1060 131 1040 161 b 1004 167 1008 167 1007 167 b 965 156 990 167 976 161 b 863 93 931 136 901 103 b 817 97 847 90 831 92 b 746 261 763 121 750 210 b 935 344 814 271 885 299 b 1038 569 996 400 1036 488 b 853 775 1038 683 969 775 b 567 563 721 775 615 682 b 313 694 511 657 422 694 b 67 539 197 694 108 649 b 36 326 39 472 32 399 b 88 143 40 264 56 199 b 296 21 136 68 206 21 b 553 158 399 21 493 76 b 814 -17 599 49 704 -17 b 939 14 856 -17 899 -7 z m 824 631 b 901 675 840 656 874 685 b 933 631 918 668 928 649 b 878 426 950 563 929 476 b 747 360 843 392 796 371 b 824 631 754 438 779 563 z m 326 125 b 243 299 269 142 244 239 b 276 490 240 364 253 431 b 388 581 297 540 340 581 b 508 461 450 581 493 515 b 507 285 525 404 524 342 b 432 157 494 236 469 189 b 326 125 404 133 363 117 z "},"Š":{"ha":682,"x_min":0,"x_max":0,"o":"m 414 1088 b 517 1201 457 1115 488 1160 b 511 1258 528 1218 525 1244 b 472 1275 500 1269 486 1275 b 436 1257 458 1275 446 1269 b 389 1193 421 1235 406 1214 b 356 1167 382 1186 365 1167 b 240 1256 333 1168 261 1250 b 196 1171 188 1271 151 1204 b 246 1125 204 1165 239 1132 b 358 1071 278 1097 314 1071 b 414 1088 378 1071 396 1076 z m 469 21 b 636 161 535 53 603 96 b 650 258 650 190 656 226 b 313 629 628 403 422 551 b 232 728 278 654 244 688 b 376 876 208 811 289 876 b 507 835 422 875 468 858 b 546 824 519 826 533 824 b 594 890 585 824 617 854 b 338 975 557 949 407 975 b 111 528 103 976 -29 714 b 160 483 125 511 142 497 b 349 339 221 433 286 389 b 424 274 374 318 400 297 b 449 239 433 264 443 253 b 456 178 456 221 460 199 b 279 90 436 110 343 90 b 131 124 228 90 175 101 b 92 133 118 129 104 133 b 39 76 54 133 22 110 b 317 -6 71 13 249 -6 b 469 21 368 -6 424 -3 z "},"š":{"ha":536,"x_min":0,"x_max":0,"o":"m 303 864 b 399 978 339 899 368 939 b 361 1058 424 1011 401 1058 b 324 1040 347 1058 332 1051 b 257 956 301 1011 281 982 b 218 925 249 947 231 925 b 197 949 210 925 201 942 b 186 988 192 961 188 975 b 138 1029 182 1014 161 1029 b 89 979 111 1029 89 1007 b 218 826 96 901 150 826 b 303 864 249 826 281 844 z m 485 100 b 494 217 504 133 506 179 b 407 368 478 272 443 322 b 282 513 368 418 324 465 b 210 635 260 539 204 601 b 271 664 214 657 251 664 b 403 610 318 664 368 642 b 442 590 414 600 426 590 b 481 660 472 590 492 628 b 457 693 476 672 467 683 b 256 764 403 738 328 764 b 101 711 199 764 143 747 b 60 644 83 693 67 669 b 64 553 53 615 54 582 b 142 413 79 501 107 454 b 253 289 176 369 217 331 b 310 183 279 258 304 222 b 271 107 314 149 300 122 b 218 96 254 99 236 96 b 126 143 182 96 144 111 b 81 169 117 160 99 169 b 36 135 61 169 42 157 b 78 50 29 108 58 67 b 253 -3 125 10 192 -3 b 485 100 335 -3 440 25 z "},"Ÿ":{"ha":701,"x_min":0,"x_max":0,"o":"m 489 10 l 489 15 b 481 489 489 174 481 331 b 481 497 481 492 478 494 b 572 646 517 543 546 594 b 671 871 608 719 640 796 b 693 929 674 879 692 921 b 646 992 700 961 675 992 b 621 983 638 992 629 989 b 563 874 601 969 572 896 b 482 665 535 806 511 735 b 440 583 469 638 457 608 b 390 547 429 567 408 540 b 351 600 376 551 358 586 b 215 963 294 715 264 843 b 146 993 208 989 168 993 b 8 933 110 993 21 976 b 11 917 8 928 8 922 b 132 640 47 822 85 729 b 279 453 168 569 214 499 b 275 139 283 349 279 243 b 281 8 274 114 268 29 b 372 -26 294 -18 335 -26 b 489 10 401 -26 476 -17 z m 315 1128 b 264 1178 315 1157 290 1178 b 235 1169 254 1178 244 1175 b 235 1086 203 1151 203 1104 b 263 1079 243 1081 253 1079 b 315 1128 290 1079 315 1099 z m 511 1100 b 474 1179 538 1131 515 1179 b 421 1157 463 1179 429 1164 b 439 1072 390 1132 401 1083 b 449 1071 442 1071 444 1071 b 511 1100 469 1071 499 1086 z "},"Ž":{"ha":768,"x_min":0,"x_max":0,"o":"m 464 1146 b 517 1246 489 1175 501 1211 b 471 1311 531 1279 506 1311 b 429 1288 456 1311 435 1303 b 388 1207 415 1260 407 1229 b 371 1201 383 1201 376 1200 b 315 1229 350 1203 331 1215 b 267 1279 308 1235 274 1274 b 240 1290 260 1286 250 1290 b 194 1218 201 1294 174 1253 b 283 1132 206 1199 264 1144 b 375 1104 310 1115 343 1104 b 464 1146 410 1104 442 1119 z m 538 7 b 689 17 563 7 667 7 b 692 103 725 31 725 83 b 661 108 682 107 671 110 b 257 100 526 100 392 103 b 743 857 429 346 572 611 b 711 942 763 885 736 921 b 596 989 679 969 638 990 b 117 979 436 986 276 982 b 122 882 42 978 49 881 b 515 888 171 883 467 886 b 32 154 342 651 176 410 b 21 129 28 146 22 138 b 31 89 19 115 24 100 b 189 1 56 47 142 1 b 538 7 306 4 422 4 z "},"ž":{"ha":567,"x_min":0,"x_max":0,"o":"m 342 889 b 414 1018 371 929 392 974 b 360 1090 433 1057 401 1101 b 329 1067 347 1086 335 1078 b 274 958 311 1031 294 993 b 168 1047 258 969 182 1036 b 135 1057 157 1054 146 1057 b 85 1004 107 1057 82 1038 b 110 967 86 989 96 974 b 156 931 128 960 140 944 b 264 856 188 901 221 867 b 342 889 292 849 326 865 z m 510 -78 b 532 101 532 -22 542 42 b 317 351 514 221 424 304 b 503 596 401 403 496 490 b 469 700 506 635 494 671 b 306 768 429 744 365 768 b 32 618 201 768 92 699 b 19 592 26 610 21 601 b 68 540 17 563 40 540 b 110 561 85 540 99 550 b 258 644 146 603 201 644 b 318 610 285 644 308 635 b 246 476 336 568 278 508 b 138 382 211 443 174 414 b 124 343 126 372 124 357 b 163 279 125 318 140 288 b 326 94 244 244 301 181 b 325 -110 344 28 344 -46 b 186 -253 307 -168 257 -253 b 160 -244 176 -253 167 -250 b 143 -197 146 -235 142 -214 b 182 -100 144 -162 161 -129 b 194 -67 189 -90 194 -79 b 147 -17 194 -40 172 -17 b 44 -171 96 -17 53 -132 b 58 -283 36 -207 39 -251 b 178 -343 85 -326 129 -343 b 510 -78 322 -343 460 -203 z "},"ˇ":{"ha":458,"x_min":0,"x_max":0,"o":"m 357 819 b 422 940 383 857 403 899 b 367 1006 438 974 403 1015 b 335 981 354 1001 340 993 b 269 864 315 940 297 899 b 224 839 261 854 239 839 b 122 925 194 842 142 901 b 85 943 111 938 97 943 b 42 871 51 943 21 908 b 119 786 51 854 106 799 b 225 742 151 761 183 742 b 357 819 282 742 325 775 z "},"˜":{"ha":518,"x_min":0,"x_max":0,"o":"m 139 831 b 140 844 139 833 138 842 b 188 871 150 854 172 871 b 271 840 208 871 254 846 b 392 817 307 828 353 817 b 486 889 439 817 478 838 b 438 946 492 924 464 946 b 393 914 419 946 401 936 b 292 935 358 914 324 924 b 189 968 258 947 225 968 b 35 863 135 967 54 914 b 65 792 24 835 38 803 b 86 788 72 789 79 788 b 139 831 113 788 136 803 z "},"ẞ":{"ha":914,"x_min":0,"x_max":0,"o":"m 726 54 b 667 608 940 192 901 508 b 814 756 726 644 781 694 b 842 865 832 789 844 828 b 583 1036 836 981 683 1036 b 138 749 397 1036 218 914 b 53 342 75 625 53 481 b 67 44 53 300 60 86 b 157 3 72 7 119 -1 b 249 81 206 8 260 33 b 228 290 232 149 226 219 b 358 799 231 451 272 660 b 560 936 406 878 465 936 b 633 911 590 936 618 929 b 613 783 660 881 633 818 b 469 650 576 729 528 681 b 444 626 460 644 450 636 b 489 539 424 592 451 553 b 636 342 575 504 625 433 b 610 178 642 286 633 228 b 506 93 589 138 556 93 b 479 99 497 93 488 94 b 406 143 451 108 433 138 b 346 93 372 149 338 126 b 538 0 360 31 481 0 b 726 54 604 0 672 19 z "},"‘":{"ha":246,"x_min":0,"x_max":0,"o":"m 196 724 b 143 768 186 747 171 768 b 168 838 149 792 157 815 b 164 933 219 851 217 919 b 144 936 157 935 151 936 b 46 776 83 936 54 822 b 121 624 32 710 53 631 b 196 724 172 619 217 679 z "},"’":{"ha":281,"x_min":0,"x_max":0,"o":"m 119 601 b 236 783 175 657 218 704 b 236 865 243 810 243 839 b 211 908 232 882 224 899 b 154 924 196 922 175 926 b 76 868 128 918 83 894 b 124 807 68 836 93 807 b 143 811 129 807 136 808 b 86 707 135 772 114 735 b 44 661 79 699 49 669 b 86 589 28 626 51 589 b 119 601 99 589 110 594 z "},"‚":{"ha":204,"x_min":0,"x_max":0,"o":"m 118 -101 b 144 128 168 -36 204 69 b 100 146 133 139 117 146 b 61 131 86 146 72 140 b 40 36 33 104 14 63 b 74 19 49 26 61 21 b 40 -43 69 7 50 -35 b 19 -60 33 -49 25 -53 b 61 -137 -4 -94 18 -137 b 118 -101 81 -137 106 -115 z "},"“":{"ha":535,"x_min":0,"x_max":0,"o":"m 226 685 b 196 746 233 711 222 739 b 136 760 176 751 156 753 b 201 861 149 799 168 838 b 178 951 243 890 221 951 b 158 947 171 951 165 950 b 86 879 128 936 106 906 b 67 689 46 821 13 733 b 183 651 92 667 146 654 b 226 685 201 651 222 668 z m 493 733 b 443 799 504 767 478 801 b 456 840 446 813 449 828 b 461 847 457 842 458 846 b 475 922 489 860 496 901 b 439 939 464 933 453 939 b 375 896 411 939 390 917 b 344 781 354 863 347 821 b 357 714 343 758 347 735 b 414 678 368 690 390 678 b 493 733 442 678 483 707 z "},"”":{"ha":504,"x_min":0,"x_max":0,"o":"m 133 604 b 149 638 142 614 143 626 b 222 808 179 692 208 747 b 219 885 228 833 228 861 b 142 938 208 919 178 938 b 44 865 90 938 36 914 b 94 824 49 840 72 824 b 128 838 107 824 118 828 b 93 740 124 803 108 771 b 54 664 89 731 58 675 b 54 611 49 647 46 626 b 97 586 64 594 81 586 b 133 604 110 586 124 592 z m 403 617 b 458 763 425 664 450 711 b 454 853 463 792 464 824 b 410 901 447 874 431 893 b 393 904 404 903 399 904 b 331 797 332 904 331 840 b 350 757 331 782 338 765 b 356 751 351 756 357 754 b 314 657 346 718 328 688 b 313 628 310 649 310 638 b 360 592 318 604 339 592 b 403 617 376 592 393 600 z "},"„":{"ha":494,"x_min":0,"x_max":0,"o":"m 149 -104 b 147 -96 149 -103 147 -97 b 182 0 160 -64 174 -33 b 190 97 189 32 194 65 b 164 150 189 118 178 138 b 100 169 147 164 122 169 b 33 129 71 169 40 157 b 92 44 22 90 51 49 b 56 -64 85 7 69 -29 b 50 -110 50 -78 47 -94 b 97 -154 54 -132 74 -154 b 101 -154 99 -154 100 -154 b 149 -104 128 -151 150 -131 z m 415 -187 b 451 -64 426 -146 440 -106 b 463 38 461 -32 468 4 b 360 144 454 96 404 144 b 308 110 340 144 321 133 b 297 50 299 92 296 69 b 367 -1 301 17 333 -4 b 321 -162 358 -57 336 -110 b 325 -192 318 -172 321 -183 b 369 -221 333 -211 351 -221 b 415 -187 389 -221 408 -210 z "},"‹":{"ha":494,"x_min":0,"x_max":0,"o":"m 449 169 b 424 203 444 182 436 197 b 139 353 374 225 175 313 b 378 567 167 404 328 535 b 401 561 386 563 393 561 b 449 618 432 561 457 586 b 378 667 442 647 407 667 b 47 386 321 667 78 465 b 54 303 36 361 39 326 b 175 214 83 263 131 238 b 401 110 207 197 379 110 b 449 169 431 110 457 139 z "},"›":{"ha":524,"x_min":0,"x_max":0,"o":"m 92 92 b 371 235 186 136 282 178 b 467 319 407 257 443 283 b 464 440 492 357 490 403 b 336 544 433 486 383 515 b 289 574 326 563 307 574 b 260 564 278 574 268 569 b 243 497 238 549 228 519 b 311 446 260 474 288 461 b 388 379 331 433 382 401 b 378 363 389 375 382 367 b 50 179 336 313 110 207 b 26 126 33 171 21 146 b 72 88 32 104 51 88 b 92 92 79 88 85 89 z "},"€":{"ha":844,"x_min":0,"x_max":0,"o":"m 742 140 b 792 231 753 156 790 211 b 743 285 794 261 769 285 b 699 254 722 285 707 272 b 526 110 667 193 603 114 b 394 307 435 110 404 235 b 501 317 414 308 485 307 b 478 408 546 343 526 408 b 388 404 447 407 417 406 b 393 525 388 444 389 485 b 460 514 415 522 438 518 b 471 508 464 513 467 510 b 492 606 540 490 561 586 b 407 621 464 613 435 618 b 532 871 422 699 456 828 b 579 883 546 879 563 886 b 697 761 633 879 676 803 b 742 732 707 742 724 732 b 790 775 764 732 786 747 b 704 910 794 814 733 882 b 510 988 653 960 582 988 b 176 615 308 988 213 786 b 106 607 167 614 114 608 b 58 547 75 603 50 576 b 115 510 65 521 90 503 b 160 515 131 514 144 514 b 157 394 156 475 154 435 b 88 390 133 393 110 393 b 61 303 42 386 25 328 b 92 293 71 296 82 292 b 169 297 118 294 143 297 b 475 3 204 138 300 3 b 742 140 579 3 679 58 z "},"−":{"ha":663,"x_min":0,"x_max":0,"o":"m 607 354 b 614 481 638 383 638 444 b 589 497 608 489 599 496 b 354 514 511 507 433 514 b 181 508 297 514 239 511 b 115 508 158 508 136 507 b 81 511 110 508 85 511 b 42 475 63 510 49 492 b 49 372 26 440 29 401 b 74 356 54 364 64 357 b 142 353 96 353 119 353 b 265 357 183 353 224 356 b 421 357 317 360 369 360 b 574 342 472 356 522 349 b 607 354 588 340 597 344 z "}}}
